  0
SECTION
  2
HEADER
  9
$ACADVER
  1
AC1018
  9
$HANDSEED
  5
FFFFFFFF
  9
$ANGBASE
  50
0.0
  9
$ANGDIR
  70
1
  9
$MEASUREMENT
  70
0
  9
$INSUNITS
  70
1
  0
ENDSEC
  0
SECTION
  2
TABLES
  0
TABLE
  2
APPID
  5
1
330
0
100
AcDbSymbolTable
 70
1
  0
APPID
  5
2
330
1
100
AcDbSymbolTableRecord
100
AcDbRegAppTableRecord
  2
ACAD
 70
0
  0
ENDTAB
  0
TABLE
  2
LTYPE
  5
3
330
0
100
AcDbSymbolTable
 70
6
  0
LTYPE
  5
4
330
3
100
AcDbSymbolTableRecord
100
AcDbLinetypeTableRecord
  2
ByBlock
 70
0
  3

 72
65
 73
0
 40
0
  0
LTYPE
  5
5
330
3
100
AcDbSymbolTableRecord
100
AcDbLinetypeTableRecord
  2
ByLayer
 70
0
  3

 72
65
 73
0
 40
0
  0
LTYPE
  5
6
330
3
100
AcDbSymbolTableRecord
100
AcDbLinetypeTableRecord
  2
CONTINUOUS
 70
0
  3
Solid line
 72
65
 73
0
 40
0
  0
LTYPE
  5
7
330
3
100
AcDbSymbolTableRecord
100
AcDbLinetypeTableRecord
  2
DASHDOT
 70
0
  3
Dash Dot ____ _ ____ _
 72
65
 73
4
 40
2
 49
1.25
 74
0
 49
-0.25
 74
0
 49
0.25
 74
0
 49
-0.25
 74
0
  0
LTYPE
  5
8
330
3
100
AcDbSymbolTableRecord
100
AcDbLinetypeTableRecord
  2
DASHED
 70
0
  3
Dashed __ __ __ __ __
 72
65
 73
2
 40
0.75
 49
0.5
 74
0
 49
-0.25
 74
0
  0
LTYPE
  5
9
330
3
100
AcDbSymbolTableRecord
100
AcDbLinetypeTableRecord
  2
DOTTED
 70
0
  3
Dotted .  .  .  .
 72
65
 73
2
 40
0.2
 49
0.0
 74
0
 49
-0.2
 74
0
  0
ENDTAB
  0
TABLE
  2
STYLE
  5
A
330
0
100
AcDbSymbolTable
 70
4
  0
STYLE
  5
B
330
A
100
AcDbSymbolTableRecord
100
AcDbTextStyleTableRecord
  2
KICAD
 70
0
 40
0
 41
1
 42
1
 50
0
 71
0
  3
isocp.shx
  0
STYLE
  5
C
330
A
100
AcDbSymbolTableRecord
100
AcDbTextStyleTableRecord
  2
KICADB
 70
0
 40
0
 41
1
 42
1
 50
0
 71
0
  3
isocp.shx
  0
STYLE
  5
D
330
A
100
AcDbSymbolTableRecord
100
AcDbTextStyleTableRecord
  2
KICADI
 70
0
 40
0
 41
1
 42
1
 50
15
 71
0
  3
isocp.shx
  0
STYLE
  5
E
330
A
100
AcDbSymbolTableRecord
100
AcDbTextStyleTableRecord
  2
KICADBI
 70
0
 40
0
 41
1
 42
1
 50
15
 71
0
  3
isocp.shx
  0
ENDTAB
  0
TABLE
  2
LAYER
  5
F
330
0
100
AcDbSymbolTable
 70
2
  0
LAYER
  5
12
330
F
100
AcDbSymbolTableRecord
100
AcDbLayerTableRecord
  2
0
 70
0
 62
7
  6
CONTINUOUS
390
10
  0
LAYER
  5
13
330
F
100
AcDbSymbolTableRecord
100
AcDbLayerTableRecord
  2
Edge.Cuts
 70
0
 62
254
420
13685453
  6
CONTINUOUS
390
10
  0
ENDTAB
  0
TABLE
  2
VPORT
  5
14
330
0
100
AcDbSymbolTable
 70
0
  0
ENDTAB
  0
TABLE
  2
VIEW
  5
15
330
0
100
AcDbSymbolTable
 70
0
  0
ENDTAB
  0
TABLE
  2
UCS
  5
16
330
0
100
AcDbSymbolTable
 70
0
  0
ENDTAB
  0
TABLE
  2
DIMSTYLE
  5
17
330
0
100
AcDbSymbolTable
 70
1
100
AcDbDimStyleTable
 71
0
  0
DIMSTYLE
105
18
330
17
100
AcDbSymbolTableRecord
100
AcDbDimStyleTableRecord
  2
Standard
 70
0
  0
ENDTAB
  0
TABLE
  2
BLOCK_RECORD
  5
19
330
0
100
AcDbSymbolTable
 70
3
  0
BLOCK_RECORD
  5
1A
330
19
100
AcDbSymbolTableRecord
100
AcDbBlockTableRecord
  2
*Model_Space
340
1D
 70
0
280
1
281
0
  0
BLOCK_RECORD
  5
1B
330
19
100
AcDbSymbolTableRecord
100
AcDbBlockTableRecord
  2
*Paper_Space
340
1E
 70
0
280
1
281
0
  0
BLOCK_RECORD
  5
1C
330
19
100
AcDbSymbolTableRecord
100
AcDbBlockTableRecord
  2
*Paper_Space0
340
1F
 70
0
280
1
281
0
  0
ENDTAB
  0
ENDSEC
  0
SECTION
  2
BLOCKS
  0
BLOCK
  5
23
330
1A
100
AcDbEntity
  8
0
100
AcDbBlockBegin
  2
*Model_Space
 70
0
 10
0.0
 20
0.0
 30
0.0
  3
*Model_Space
  1

  0
ENDBLK
  5
22
330
1A
100
AcDbEntity
  8
0
100
AcDbBlockEnd
  0
BLOCK
  5
25
330
1B
100
AcDbEntity
 67
1
  8
0
100
AcDbBlockBegin
  2
*Paper_Space
 70
0
 10
0.0
 20
0.0
 30
0.0
  3
*Paper_Space
  1

  0
ENDBLK
  5
24
330
1B
100
AcDbEntity
 67
1
  8
0
100
AcDbBlockEnd
  0
BLOCK
  5
27
330
1C
100
AcDbEntity
 67
1
  8
0
100
AcDbBlockBegin
  2
*Paper_Space0
 70
0
 10
0.0
 20
0.0
 30
0.0
  3
*Paper_Space0
  1

  0
ENDBLK
  5
26
330
1C
100
AcDbEntity
 67
1
  8
0
100
AcDbBlockEnd
  0
ENDSEC
  0
SECTION
  2
ENTITIES
  0
LINE
  5
28
330
1A
100
AcDbEntity
  8
Edge.Cuts
  6
CONTINUOUS
100
AcDbLine
 10
8.4531325590551187
 20
-1.3652324015748032
 30
0
 11
8.4536652362204716
 21
-1.3657650787401574
 31
0
  0
LINE
  5
29
330
1A
100
AcDbEntity
  8
Edge.Cuts
  6
CONTINUOUS
100
AcDbLine
 10
8.4536652362204716
 20
-1.3657650787401574
 30
0
 11
8.4537401574803148
 21
-1.3661417322834646
 31
0
  0
LINE
  5
2A
330
1A
100
AcDbEntity
  8
Edge.Cuts
  6
CONTINUOUS
100
AcDbLine
 10
8.4537401574803148
 20
-1.3661417322834646
 30
0
 11
8.4537401574803148
 21
-1.6013779527559056
 31
0
  0
LINE
  5
2B
330
1A
100
AcDbEntity
  8
Edge.Cuts
  6
CONTINUOUS
100
AcDbLine
 10
8.4537401574803148
 20
-1.6013779527559056
 30
0
 11
8.6299212598425203
 21
-1.6013779527559056
 31
0
  0
LINE
  5
2C
330
1A
100
AcDbEntity
  8
Edge.Cuts
  6
CONTINUOUS
100
AcDbLine
 10
8.6299212598425203
 20
-1.6013779527559056
 30
0
 11
8.6302979133858262
 21
-1.6014528740157481
 31
0
  0
LINE
  5
2D
330
1A
100
AcDbEntity
  8
Edge.Cuts
  6
CONTINUOUS
100
AcDbLine
 10
8.6302979133858262
 20
-1.6014528740157481
 30
0
 11
8.6308305905511808
 21
-1.6019855511811023
 31
0
  0
LINE
  5
2E
330
1A
100
AcDbEntity
  8
Edge.Cuts
  6
CONTINUOUS
100
AcDbLine
 10
8.6308305905511808
 20
-1.6019855511811023
 30
0
 11
8.6309055118110241
 21
-1.6023622047244095
 31
0
  0
LINE
  5
2F
330
1A
100
AcDbEntity
  8
Edge.Cuts
  6
CONTINUOUS
100
AcDbLine
 10
8.6309055118110241
 20
-1.6023622047244095
 30
0
 11
8.6309055118110241
 21
-1.8572834645669292
 31
0
  0
LINE
  5
30
330
1A
100
AcDbEntity
  8
Edge.Cuts
  6
CONTINUOUS
100
AcDbLine
 10
8.6309055118110241
 20
-1.8572834645669292
 30
0
 11
8.7677165354330704
 21
-1.8572834645669292
 31
0
  0
LINE
  5
31
330
1A
100
AcDbEntity
  8
Edge.Cuts
  6
CONTINUOUS
100
AcDbLine
 10
8.7677165354330704
 20
-1.8572834645669292
 30
0
 11
8.768093188976378
 21
-1.8573583858267717
 31
0
  0
LINE
  5
32
330
1A
100
AcDbEntity
  8
Edge.Cuts
  6
CONTINUOUS
100
AcDbLine
 10
8.768093188976378
 20
-1.8573583858267717
 30
0
 11
8.7686258661417327
 21
-1.8578910629921259
 31
0
  0
LINE
  5
33
330
1A
100
AcDbEntity
  8
Edge.Cuts
  6
CONTINUOUS
100
AcDbLine
 10
8.7686258661417327
 20
-1.8578910629921259
 30
0
 11
8.7687007874015741
 21
-1.8582677165354331
 31
0
  0
LINE
  5
34
330
1A
100
AcDbEntity
  8
Edge.Cuts
  6
CONTINUOUS
100
AcDbLine
 10
8.7687007874015741
 20
-1.8582677165354331
 30
0
 11
8.7687007874015741
 21
-1.9950787401574803
 31
0
  0
LINE
  5
35
330
1A
100
AcDbEntity
  8
Edge.Cuts
  6
CONTINUOUS
100
AcDbLine
 10
8.7687007874015741
 20
-1.9950787401574803
 30
0
 11
8.9055118110236222
 21
-1.9950787401574803
 31
0
  0
LINE
  5
36
330
1A
100
AcDbEntity
  8
Edge.Cuts
  6
CONTINUOUS
100
AcDbLine
 10
8.9055118110236222
 20
-1.9950787401574803
 30
0
 11
8.9058884645669281
 21
-1.9951536614173229
 31
0
  0
LINE
  5
37
330
1A
100
AcDbEntity
  8
Edge.Cuts
  6
CONTINUOUS
100
AcDbLine
 10
8.9058884645669281
 20
-1.9951536614173229
 30
0
 11
8.9064211417322827
 21
-1.9956863385826771
 31
0
  0
LINE
  5
38
330
1A
100
AcDbEntity
  8
Edge.Cuts
  6
CONTINUOUS
100
AcDbLine
 10
8.9064211417322827
 20
-1.9956863385826771
 30
0
 11
8.9064960629921259
 21
-1.9960629921259843
 31
0
  0
LINE
  5
39
330
1A
100
AcDbEntity
  8
Edge.Cuts
  6
CONTINUOUS
100
AcDbLine
 10
8.9064960629921259
 20
-1.9960629921259843
 30
0
 11
8.9064960629921259
 21
-2.0935039370078741
 31
0
  0
LINE
  5
3A
330
1A
100
AcDbEntity
  8
Edge.Cuts
  6
CONTINUOUS
100
AcDbLine
 10
8.9064960629921259
 20
-2.0935039370078741
 30
0
 11
9.5748031496062982
 21
-2.0935039370078741
 31
0
  0
LINE
  5
3B
330
1A
100
AcDbEntity
  8
Edge.Cuts
  6
CONTINUOUS
100
AcDbLine
 10
9.5748031496062982
 20
-2.0935039370078741
 30
0
 11
9.5751798031496058
 21
-2.0935788582677164
 31
0
  0
LINE
  5
3C
330
1A
100
AcDbEntity
  8
Edge.Cuts
  6
CONTINUOUS
100
AcDbLine
 10
9.5751798031496058
 20
-2.0935788582677164
 30
0
 11
9.5757124803149605
 21
-2.0941115354330706
 31
0
  0
LINE
  5
3D
330
1A
100
AcDbEntity
  8
Edge.Cuts
  6
CONTINUOUS
100
AcDbLine
 10
9.5757124803149605
 20
-2.0941115354330706
 30
0
 11
9.5757874015748037
 21
-2.0944881889763778
 31
0
  0
LINE
  5
3E
330
1A
100
AcDbEntity
  8
Edge.Cuts
  6
CONTINUOUS
100
AcDbLine
 10
9.5757874015748037
 20
-2.0944881889763778
 30
0
 11
9.5757874015748037
 21
-2.2322834645669292
 31
0
  0
LINE
  5
3F
330
1A
100
AcDbEntity
  8
Edge.Cuts
  6
CONTINUOUS
100
AcDbLine
 10
9.5757874015748037
 20
-2.2322834645669292
 30
0
 11
9.5757124803149605
 21
-2.2326601181102363
 31
0
  0
LINE
  5
40
330
1A
100
AcDbEntity
  8
Edge.Cuts
  6
CONTINUOUS
100
AcDbLine
 10
9.5757124803149605
 20
-2.2326601181102363
 30
0
 11
9.5751798031496058
 21
-2.2331927952755906
 31
0
  0
LINE
  5
41
330
1A
100
AcDbEntity
  8
Edge.Cuts
  6
CONTINUOUS
100
AcDbLine
 10
9.5751798031496058
 20
-2.2331927952755906
 30
0
 11
9.5748031496062982
 21
-2.2332677165354329
 31
0
  0
LINE
  5
42
330
1A
100
AcDbEntity
  8
Edge.Cuts
  6
CONTINUOUS
100
AcDbLine
 10
9.5748031496062982
 20
-2.2332677165354329
 30
0
 11
9.4183070866141723
 21
-2.2332677165354329
 31
0
  0
LINE
  5
43
330
1A
100
AcDbEntity
  8
Edge.Cuts
  6
CONTINUOUS
100
AcDbLine
 10
9.4183070866141723
 20
-2.2332677165354329
 30
0
 11
9.4183070866141723
 21
-2.3307086614173227
 31
0
  0
LINE
  5
44
330
1A
100
AcDbEntity
  8
Edge.Cuts
  6
CONTINUOUS
100
AcDbLine
 10
9.4183070866141723
 20
-2.3307086614173227
 30
0
 11
9.4182321653543308
 21
-2.3310853149606299
 31
0
  0
LINE
  5
45
330
1A
100
AcDbEntity
  8
Edge.Cuts
  6
CONTINUOUS
100
AcDbLine
 10
9.4182321653543308
 20
-2.3310853149606299
 30
0
 11
9.4176994881889762
 21
-2.3316179921259841
 31
0
  0
LINE
  5
46
330
1A
100
AcDbEntity
  8
Edge.Cuts
  6
CONTINUOUS
100
AcDbLine
 10
9.4176994881889762
 20
-2.3316179921259841
 30
0
 11
9.4173228346456686
 21
-2.3316929133858268
 31
0
  0
LINE
  5
47
330
1A
100
AcDbEntity
  8
Edge.Cuts
  6
CONTINUOUS
100
AcDbLine
 10
9.4173228346456686
 20
-2.3316929133858268
 30
0
 11
9.3001968503937
 21
-2.3316929133858268
 31
0
  0
LINE
  5
48
330
1A
100
AcDbEntity
  8
Edge.Cuts
  6
CONTINUOUS
100
AcDbLine
 10
9.3001968503937
 20
-2.3316929133858268
 30
0
 11
9.3001968503937
 21
-2.4291338582677167
 31
0
  0
LINE
  5
49
330
1A
100
AcDbEntity
  8
Edge.Cuts
  6
CONTINUOUS
100
AcDbLine
 10
9.3001968503937
 20
-2.4291338582677167
 30
0
 11
9.3001219291338586
 21
-2.4295105118110234
 31
0
  0
LINE
  5
4A
330
1A
100
AcDbEntity
  8
Edge.Cuts
  6
CONTINUOUS
100
AcDbLine
 10
9.3001219291338586
 20
-2.4295105118110234
 30
0
 11
9.2995892519685039
 21
-2.4300431889763781
 31
0
  0
LINE
  5
4B
330
1A
100
AcDbEntity
  8
Edge.Cuts
  6
CONTINUOUS
100
AcDbLine
 10
9.2995892519685039
 20
-2.4300431889763781
 30
0
 11
9.2992125984251963
 21
-2.4301181102362204
 31
0
  0
LINE
  5
4C
330
1A
100
AcDbEntity
  8
Edge.Cuts
  6
CONTINUOUS
100
AcDbLine
 10
9.2992125984251963
 20
-2.4301181102362204
 30
0
 11
9.16240157480315
 21
-2.4301181102362204
 31
0
  0
LINE
  5
4D
330
1A
100
AcDbEntity
  8
Edge.Cuts
  6
CONTINUOUS
100
AcDbLine
 10
9.16240157480315
 20
-2.4301181102362204
 30
0
 11
9.16240157480315
 21
-2.5472440944881889
 31
0
  0
LINE
  5
4E
330
1A
100
AcDbEntity
  8
Edge.Cuts
  6
CONTINUOUS
100
AcDbLine
 10
9.16240157480315
 20
-2.5472440944881889
 30
0
 11
9.1623266535433068
 21
-2.5476207480314961
 31
0
  0
LINE
  5
4F
330
1A
100
AcDbEntity
  8
Edge.Cuts
  6
CONTINUOUS
100
AcDbLine
 10
9.1623266535433068
 20
-2.5476207480314961
 30
0
 11
9.1617939763779521
 21
-2.5481534251968503
 31
0
  0
LINE
  5
50
330
1A
100
AcDbEntity
  8
Edge.Cuts
  6
CONTINUOUS
100
AcDbLine
 10
9.1617939763779521
 20
-2.5481534251968503
 30
0
 11
9.1614173228346463
 21
-2.548228346456693
 31
0
  0
LINE
  5
51
330
1A
100
AcDbEntity
  8
Edge.Cuts
  6
CONTINUOUS
100
AcDbLine
 10
9.1614173228346463
 20
-2.548228346456693
 30
0
 11
9.0442913385826778
 21
-2.548228346456693
 31
0
  0
LINE
  5
52
330
1A
100
AcDbEntity
  8
Edge.Cuts
  6
CONTINUOUS
100
AcDbLine
 10
9.0442913385826778
 20
-2.548228346456693
 30
0
 11
9.0442913385826778
 21
-2.6456692913385824
 31
0
  0
LINE
  5
53
330
1A
100
AcDbEntity
  8
Edge.Cuts
  6
CONTINUOUS
100
AcDbLine
 10
9.0442913385826778
 20
-2.6456692913385824
 30
0
 11
9.0442164173228345
 21
-2.6460459448818896
 31
0
  0
LINE
  5
54
330
1A
100
AcDbEntity
  8
Edge.Cuts
  6
CONTINUOUS
100
AcDbLine
 10
9.0442164173228345
 20
-2.6460459448818896
 30
0
 11
9.0436837401574799
 21
-2.6465786220472443
 31
0
  0
LINE
  5
55
330
1A
100
AcDbEntity
  8
Edge.Cuts
  6
CONTINUOUS
100
AcDbLine
 10
9.0436837401574799
 20
-2.6465786220472443
 30
0
 11
9.0433070866141723
 21
-2.6466535433070866
 31
0
  0
LINE
  5
56
330
1A
100
AcDbEntity
  8
Edge.Cuts
  6
CONTINUOUS
100
AcDbLine
 10
9.0433070866141723
 20
-2.6466535433070866
 30
0
 11
8.9064960629921259
 21
-2.6466535433070866
 31
0
  0
LINE
  5
57
330
1A
100
AcDbEntity
  8
Edge.Cuts
  6
CONTINUOUS
100
AcDbLine
 10
8.9064960629921259
 20
-2.6466535433070866
 30
0
 11
8.9064960629921259
 21
-2.7824803149606296
 31
0
  0
LINE
  5
58
330
1A
100
AcDbEntity
  8
Edge.Cuts
  6
CONTINUOUS
100
AcDbLine
 10
8.9064960629921259
 20
-2.7824803149606296
 30
0
 11
9.0236220472440944
 21
-2.7824803149606296
 31
0
  0
LINE
  5
59
330
1A
100
AcDbEntity
  8
Edge.Cuts
  6
CONTINUOUS
100
AcDbLine
 10
9.0236220472440944
 20
-2.7824803149606296
 30
0
 11
9.0239987007874021
 21
-2.7825552362204724
 31
0
  0
LINE
  5
5A
330
1A
100
AcDbEntity
  8
Edge.Cuts
  6
CONTINUOUS
100
AcDbLine
 10
9.0239987007874021
 20
-2.7825552362204724
 30
0
 11
9.024531377952755
 21
-2.7830879133858266
 31
0
  0
LINE
  5
5B
330
1A
100
AcDbEntity
  8
Edge.Cuts
  6
CONTINUOUS
100
AcDbLine
 10
9.024531377952755
 20
-2.7830879133858266
 30
0
 11
9.0246062992125982
 21
-2.7834645669291338
 31
0
  0
LINE
  5
5C
330
1A
100
AcDbEntity
  8
Edge.Cuts
  6
CONTINUOUS
100
AcDbLine
 10
9.0246062992125982
 20
-2.7834645669291338
 30
0
 11
9.0246062992125982
 21
-2.9399606299212597
 31
0
  0
LINE
  5
5D
330
1A
100
AcDbEntity
  8
Edge.Cuts
  6
CONTINUOUS
100
AcDbLine
 10
9.0246062992125982
 20
-2.9399606299212597
 30
0
 11
9.1614173228346463
 21
-2.9399606299212597
 31
0
  0
LINE
  5
5E
330
1A
100
AcDbEntity
  8
Edge.Cuts
  6
CONTINUOUS
100
AcDbLine
 10
9.1614173228346463
 20
-2.9399606299212597
 30
0
 11
9.1617939763779521
 21
-2.9400355511811025
 31
0
  0
LINE
  5
5F
330
1A
100
AcDbEntity
  8
Edge.Cuts
  6
CONTINUOUS
100
AcDbLine
 10
9.1617939763779521
 20
-2.9400355511811025
 30
0
 11
9.1623266535433068
 21
-2.9405682283464567
 31
0
  0
LINE
  5
60
330
1A
100
AcDbEntity
  8
Edge.Cuts
  6
CONTINUOUS
100
AcDbLine
 10
9.1623266535433068
 20
-2.9405682283464567
 30
0
 11
9.16240157480315
 21
-2.9409448818897639
 31
0
  0
LINE
  5
61
330
1A
100
AcDbEntity
  8
Edge.Cuts
  6
CONTINUOUS
100
AcDbLine
 10
9.16240157480315
 20
-2.9409448818897639
 30
0
 11
9.16240157480315
 21
-3.1171259842519685
 31
0
  0
LINE
  5
62
330
1A
100
AcDbEntity
  8
Edge.Cuts
  6
CONTINUOUS
100
AcDbLine
 10
9.16240157480315
 20
-3.1171259842519685
 30
0
 11
9.2992125984251963
 21
-3.1171259842519685
 31
0
  0
LINE
  5
63
330
1A
100
AcDbEntity
  8
Edge.Cuts
  6
CONTINUOUS
100
AcDbLine
 10
9.2992125984251963
 20
-3.1171259842519685
 30
0
 11
9.2995892519685039
 21
-3.1172009055118108
 31
0
  0
LINE
  5
64
330
1A
100
AcDbEntity
  8
Edge.Cuts
  6
CONTINUOUS
100
AcDbLine
 10
9.2995892519685039
 20
-3.1172009055118108
 30
0
 11
9.3001219291338586
 21
-3.1177335826771655
 31
0
  0
LINE
  5
65
330
1A
100
AcDbEntity
  8
Edge.Cuts
  6
CONTINUOUS
100
AcDbLine
 10
9.3001219291338586
 20
-3.1177335826771655
 30
0
 11
9.3001968503937
 21
-3.1181102362204722
 31
0
  0
LINE
  5
66
330
1A
100
AcDbEntity
  8
Edge.Cuts
  6
CONTINUOUS
100
AcDbLine
 10
9.3001968503937
 20
-3.1181102362204722
 30
0
 11
9.3001968503937
 21
-3.295275590551181
 31
0
  0
LINE
  5
67
330
1A
100
AcDbEntity
  8
Edge.Cuts
  6
CONTINUOUS
100
AcDbLine
 10
9.3001968503937
 20
-3.295275590551181
 30
0
 11
9.3001219291338586
 21
-3.2956522440944882
 31
0
  0
LINE
  5
68
330
1A
100
AcDbEntity
  8
Edge.Cuts
  6
CONTINUOUS
100
AcDbLine
 10
9.3001219291338586
 20
-3.2956522440944882
 30
0
 11
9.2995892519685039
 21
-3.2961849212598424
 31
0
  0
LINE
  5
69
330
1A
100
AcDbEntity
  8
Edge.Cuts
  6
CONTINUOUS
100
AcDbLine
 10
9.2995892519685039
 20
-3.2961849212598424
 30
0
 11
9.2992125984251963
 21
-3.2962598425196852
 31
0
  0
LINE
  5
6A
330
1A
100
AcDbEntity
  8
Edge.Cuts
  6
CONTINUOUS
100
AcDbLine
 10
9.2992125984251963
 20
-3.2962598425196852
 30
0
 11
8.6889763779527556
 21
-3.2962598425196852
 31
0
  0
LINE
  5
6B
330
1A
100
AcDbEntity
  8
Edge.Cuts
  6
CONTINUOUS
100
AcDbLine
 10
8.6889763779527556
 20
-3.2962598425196852
 30
0
 11
8.6885997244094479
 21
-3.2961849212598424
 31
0
  0
LINE
  5
6C
330
1A
100
AcDbEntity
  8
Edge.Cuts
  6
CONTINUOUS
100
AcDbLine
 10
8.6885997244094479
 20
-3.2961849212598424
 30
0
 11
8.6880670472440951
 21
-3.2956522440944882
 31
0
  0
LINE
  5
6D
330
1A
100
AcDbEntity
  8
Edge.Cuts
  6
CONTINUOUS
100
AcDbLine
 10
8.6880670472440951
 20
-3.2956522440944882
 30
0
 11
8.6879921259842519
 21
-3.295275590551181
 31
0
  0
LINE
  5
6E
330
1A
100
AcDbEntity
  8
Edge.Cuts
  6
CONTINUOUS
100
AcDbLine
 10
8.6879921259842519
 20
-3.295275590551181
 30
0
 11
8.6879921259842519
 21
-3.1584645669291338
 31
0
  0
LINE
  5
6F
330
1A
100
AcDbEntity
  8
Edge.Cuts
  6
CONTINUOUS
100
AcDbLine
 10
8.6879921259842519
 20
-3.1584645669291338
 30
0
 11
8.5314960629921259
 21
-3.1584645669291338
 31
0
  0
LINE
  5
70
330
1A
100
AcDbEntity
  8
Edge.Cuts
  6
CONTINUOUS
100
AcDbLine
 10
8.5314960629921259
 20
-3.1584645669291338
 30
0
 11
8.5311194094488183
 21
-3.1583896456692915
 31
0
  0
LINE
  5
71
330
1A
100
AcDbEntity
  8
Edge.Cuts
  6
CONTINUOUS
100
AcDbLine
 10
8.5311194094488183
 20
-3.1583896456692915
 30
0
 11
8.5305867322834636
 21
-3.1578569685039368
 31
0
  0
LINE
  5
72
330
1A
100
AcDbEntity
  8
Edge.Cuts
  6
CONTINUOUS
100
AcDbLine
 10
8.5305867322834636
 20
-3.1578569685039368
 30
0
 11
8.5305118110236222
 21
-3.1574803149606296
 31
0
  0
LINE
  5
73
330
1A
100
AcDbEntity
  8
Edge.Cuts
  6
CONTINUOUS
100
AcDbLine
 10
8.5305118110236222
 20
-3.1574803149606296
 30
0
 11
8.5305118110236222
 21
-2.9616141732283463
 31
0
  0
LINE
  5
74
330
1A
100
AcDbEntity
  8
Edge.Cuts
  6
CONTINUOUS
100
AcDbLine
 10
8.5305118110236222
 20
-2.9616141732283463
 30
0
 11
8.4527559055118111
 21
-2.9616141732283463
 31
0
  0
LINE
  5
75
330
1A
100
AcDbEntity
  8
Edge.Cuts
  6
CONTINUOUS
100
AcDbLine
 10
8.4527559055118111
 20
-2.9616141732283463
 30
0
 11
8.4523792519685035
 21
-2.961539251968504
 31
0
  0
LINE
  5
76
330
1A
100
AcDbEntity
  8
Edge.Cuts
  6
CONTINUOUS
100
AcDbLine
 10
8.4523792519685035
 20
-2.961539251968504
 30
0
 11
8.4518465748031488
 21
-2.9610065748031493
 31
0
  0
LINE
  5
77
330
1A
100
AcDbEntity
  8
Edge.Cuts
  6
CONTINUOUS
100
AcDbLine
 10
8.4518465748031488
 20
-2.9610065748031493
 30
0
 11
8.4517716535433074
 21
-2.9606299212598426
 31
0
  0
LINE
  5
78
330
1A
100
AcDbEntity
  8
Edge.Cuts
  6
CONTINUOUS
100
AcDbLine
 10
8.4517716535433074
 20
-2.9606299212598426
 30
0
 11
8.4517716535433074
 21
-2.7844488188976375
 31
0
  0
LINE
  5
79
330
1A
100
AcDbEntity
  8
Edge.Cuts
  6
CONTINUOUS
100
AcDbLine
 10
8.4517716535433074
 20
-2.7844488188976375
 30
0
 11
8.2962598425196852
 21
-2.7844488188976375
 31
0
  0
LINE
  5
7A
330
1A
100
AcDbEntity
  8
Edge.Cuts
  6
CONTINUOUS
100
AcDbLine
 10
8.2962598425196852
 20
-2.7844488188976375
 30
0
 11
8.2962598425196852
 21
-2.9606299212598426
 31
0
  0
LINE
  5
7B
330
1A
100
AcDbEntity
  8
Edge.Cuts
  6
CONTINUOUS
100
AcDbLine
 10
8.2962598425196852
 20
-2.9606299212598426
 30
0
 11
8.296184921259842
 21
-2.9610065748031493
 31
0
  0
LINE
  5
7C
330
1A
100
AcDbEntity
  8
Edge.Cuts
  6
CONTINUOUS
100
AcDbLine
 10
8.296184921259842
 20
-2.9610065748031493
 30
0
 11
8.2956522440944873
 21
-2.961539251968504
 31
0
  0
LINE
  5
7D
330
1A
100
AcDbEntity
  8
Edge.Cuts
  6
CONTINUOUS
100
AcDbLine
 10
8.2956522440944873
 20
-2.961539251968504
 30
0
 11
8.2952755905511815
 21
-2.9616141732283463
 31
0
  0
LINE
  5
7E
330
1A
100
AcDbEntity
  8
Edge.Cuts
  6
CONTINUOUS
100
AcDbLine
 10
8.2952755905511815
 20
-2.9616141732283463
 30
0
 11
8.2175196850393704
 21
-2.9616141732283463
 31
0
  0
LINE
  5
7F
330
1A
100
AcDbEntity
  8
Edge.Cuts
  6
CONTINUOUS
100
AcDbLine
 10
8.2175196850393704
 20
-2.9616141732283463
 30
0
 11
8.2175196850393704
 21
-3.1574803149606296
 31
0
  0
LINE
  5
80
330
1A
100
AcDbEntity
  8
Edge.Cuts
  6
CONTINUOUS
100
AcDbLine
 10
8.2175196850393704
 20
-3.1574803149606296
 30
0
 11
8.2174447637795272
 21
-3.1578569685039368
 31
0
  0
LINE
  5
81
330
1A
100
AcDbEntity
  8
Edge.Cuts
  6
CONTINUOUS
100
AcDbLine
 10
8.2174447637795272
 20
-3.1578569685039368
 30
0
 11
8.2169120866141725
 21
-3.1583896456692915
 31
0
  0
LINE
  5
82
330
1A
100
AcDbEntity
  8
Edge.Cuts
  6
CONTINUOUS
100
AcDbLine
 10
8.2169120866141725
 20
-3.1583896456692915
 30
0
 11
8.2165354330708666
 21
-3.1584645669291338
 31
0
  0
LINE
  5
83
330
1A
100
AcDbEntity
  8
Edge.Cuts
  6
CONTINUOUS
100
AcDbLine
 10
8.2165354330708666
 20
-3.1584645669291338
 30
0
 11
8.0600393700787407
 21
-3.1584645669291338
 31
0
  0
LINE
  5
84
330
1A
100
AcDbEntity
  8
Edge.Cuts
  6
CONTINUOUS
100
AcDbLine
 10
8.0600393700787407
 20
-3.1584645669291338
 30
0
 11
8.0600393700787407
 21
-3.295275590551181
 31
0
  0
LINE
  5
85
330
1A
100
AcDbEntity
  8
Edge.Cuts
  6
CONTINUOUS
100
AcDbLine
 10
8.0600393700787407
 20
-3.295275590551181
 30
0
 11
8.0599644488188975
 21
-3.2956522440944882
 31
0
  0
LINE
  5
86
330
1A
100
AcDbEntity
  8
Edge.Cuts
  6
CONTINUOUS
100
AcDbLine
 10
8.0599644488188975
 20
-3.2956522440944882
 30
0
 11
8.0594317716535429
 21
-3.2961849212598424
 31
0
  0
LINE
  5
87
330
1A
100
AcDbEntity
  8
Edge.Cuts
  6
CONTINUOUS
100
AcDbLine
 10
8.0594317716535429
 20
-3.2961849212598424
 30
0
 11
8.0590551181102352
 21
-3.2962598425196852
 31
0
  0
LINE
  5
88
330
1A
100
AcDbEntity
  8
Edge.Cuts
  6
CONTINUOUS
100
AcDbLine
 10
8.0590551181102352
 20
-3.2962598425196852
 30
0
 11
7.4488188976377954
 21
-3.2962598425196852
 31
0
  0
LINE
  5
89
330
1A
100
AcDbEntity
  8
Edge.Cuts
  6
CONTINUOUS
100
AcDbLine
 10
7.4488188976377954
 20
-3.2962598425196852
 30
0
 11
7.4484422440944877
 21
-3.2961849212598424
 31
0
  0
LINE
  5
8A
330
1A
100
AcDbEntity
  8
Edge.Cuts
  6
CONTINUOUS
100
AcDbLine
 10
7.4484422440944877
 20
-3.2961849212598424
 30
0
 11
7.447909566929134
 21
-3.2956522440944882
 31
0
  0
LINE
  5
8B
330
1A
100
AcDbEntity
  8
Edge.Cuts
  6
CONTINUOUS
100
AcDbLine
 10
7.447909566929134
 20
-3.2956522440944882
 30
0
 11
7.4478346456692908
 21
-3.295275590551181
 31
0
  0
LINE
  5
8C
330
1A
100
AcDbEntity
  8
Edge.Cuts
  6
CONTINUOUS
100
AcDbLine
 10
7.4478346456692908
 20
-3.295275590551181
 30
0
 11
7.4478346456692908
 21
-3.1181102362204722
 31
0
  0
LINE
  5
8D
330
1A
100
AcDbEntity
  8
Edge.Cuts
  6
CONTINUOUS
100
AcDbLine
 10
7.4478346456692908
 20
-3.1181102362204722
 30
0
 11
7.447909566929134
 21
-3.1177335826771655
 31
0
  0
LINE
  5
8E
330
1A
100
AcDbEntity
  8
Edge.Cuts
  6
CONTINUOUS
100
AcDbLine
 10
7.447909566929134
 20
-3.1177335826771655
 30
0
 11
7.4484422440944877
 21
-3.1172009055118108
 31
0
  0
LINE
  5
8F
330
1A
100
AcDbEntity
  8
Edge.Cuts
  6
CONTINUOUS
100
AcDbLine
 10
7.4484422440944877
 20
-3.1172009055118108
 30
0
 11
7.4488188976377954
 21
-3.1171259842519685
 31
0
  0
LINE
  5
90
330
1A
100
AcDbEntity
  8
Edge.Cuts
  6
CONTINUOUS
100
AcDbLine
 10
7.4488188976377954
 20
-3.1171259842519685
 30
0
 11
7.5265748031496065
 21
-3.1171259842519685
 31
0
  0
LINE
  5
91
330
1A
100
AcDbEntity
  8
Edge.Cuts
  6
CONTINUOUS
100
AcDbLine
 10
7.5265748031496065
 20
-3.1171259842519685
 30
0
 11
7.5265748031496065
 21
-2.9409448818897639
 31
0
  0
LINE
  5
92
330
1A
100
AcDbEntity
  8
Edge.Cuts
  6
CONTINUOUS
100
AcDbLine
 10
7.5265748031496065
 20
-2.9409448818897639
 30
0
 11
7.5266497244094488
 21
-2.9405682283464567
 31
0
  0
LINE
  5
93
330
1A
100
AcDbEntity
  8
Edge.Cuts
  6
CONTINUOUS
100
AcDbLine
 10
7.5266497244094488
 20
-2.9405682283464567
 30
0
 11
7.5271824015748026
 21
-2.9400355511811025
 31
0
  0
LINE
  5
94
330
1A
100
AcDbEntity
  8
Edge.Cuts
  6
CONTINUOUS
100
AcDbLine
 10
7.5271824015748026
 20
-2.9400355511811025
 30
0
 11
7.5275590551181102
 21
-2.9399606299212597
 31
0
  0
LINE
  5
95
330
1A
100
AcDbEntity
  8
Edge.Cuts
  6
CONTINUOUS
100
AcDbLine
 10
7.5275590551181102
 20
-2.9399606299212597
 30
0
 11
7.6840551181102361
 21
-2.9399606299212597
 31
0
  0
LINE
  5
96
330
1A
100
AcDbEntity
  8
Edge.Cuts
  6
CONTINUOUS
100
AcDbLine
 10
7.6840551181102361
 20
-2.9399606299212597
 30
0
 11
7.6840551181102361
 21
-2.7834645669291338
 31
0
  0
LINE
  5
97
330
1A
100
AcDbEntity
  8
Edge.Cuts
  6
CONTINUOUS
100
AcDbLine
 10
7.6840551181102361
 20
-2.7834645669291338
 30
0
 11
7.6841300393700784
 21
-2.7830879133858266
 31
0
  0
LINE
  5
98
330
1A
100
AcDbEntity
  8
Edge.Cuts
  6
CONTINUOUS
100
AcDbLine
 10
7.6841300393700784
 20
-2.7830879133858266
 30
0
 11
7.6846627165354331
 21
-2.7825552362204724
 31
0
  0
LINE
  5
99
330
1A
100
AcDbEntity
  8
Edge.Cuts
  6
CONTINUOUS
100
AcDbLine
 10
7.6846627165354331
 20
-2.7825552362204724
 30
0
 11
7.6850393700787398
 21
-2.7824803149606296
 31
0
  0
LINE
  5
9A
330
1A
100
AcDbEntity
  8
Edge.Cuts
  6
CONTINUOUS
100
AcDbLine
 10
7.6850393700787398
 20
-2.7824803149606296
 30
0
 11
7.8415354330708658
 21
-2.7824803149606296
 31
0
  0
LINE
  5
9B
330
1A
100
AcDbEntity
  8
Edge.Cuts
  6
CONTINUOUS
100
AcDbLine
 10
7.8415354330708658
 20
-2.7824803149606296
 30
0
 11
7.8415354330708658
 21
-2.6466535433070866
 31
0
  0
LINE
  5
9C
330
1A
100
AcDbEntity
  8
Edge.Cuts
  6
CONTINUOUS
100
AcDbLine
 10
7.8415354330708658
 20
-2.6466535433070866
 30
0
 11
7.7047244094488185
 21
-2.6466535433070866
 31
0
  0
LINE
  5
9D
330
1A
100
AcDbEntity
  8
Edge.Cuts
  6
CONTINUOUS
100
AcDbLine
 10
7.7047244094488185
 20
-2.6466535433070866
 30
0
 11
7.7043477559055118
 21
-2.6465786220472443
 31
0
  0
LINE
  5
9E
330
1A
100
AcDbEntity
  8
Edge.Cuts
  6
CONTINUOUS
100
AcDbLine
 10
7.7043477559055118
 20
-2.6465786220472443
 30
0
 11
7.7038150787401571
 21
-2.6460459448818896
 31
0
  0
LINE
  5
9F
330
1A
100
AcDbEntity
  8
Edge.Cuts
  6
CONTINUOUS
100
AcDbLine
 10
7.7038150787401571
 20
-2.6460459448818896
 30
0
 11
7.7037401574803148
 21
-2.6456692913385824
 31
0
  0
LINE
  5
A0
330
1A
100
AcDbEntity
  8
Edge.Cuts
  6
CONTINUOUS
100
AcDbLine
 10
7.7037401574803148
 20
-2.6456692913385824
 30
0
 11
7.7037401574803148
 21
-2.548228346456693
 31
0
  0
LINE
  5
A1
330
1A
100
AcDbEntity
  8
Edge.Cuts
  6
CONTINUOUS
100
AcDbLine
 10
7.7037401574803148
 20
-2.548228346456693
 30
0
 11
7.5866141732283463
 21
-2.548228346456693
 31
0
  0
LINE
  5
A2
330
1A
100
AcDbEntity
  8
Edge.Cuts
  6
CONTINUOUS
100
AcDbLine
 10
7.5866141732283463
 20
-2.548228346456693
 30
0
 11
7.5862375196850396
 21
-2.5481534251968503
 31
0
  0
LINE
  5
A3
330
1A
100
AcDbEntity
  8
Edge.Cuts
  6
CONTINUOUS
100
AcDbLine
 10
7.5862375196850396
 20
-2.5481534251968503
 30
0
 11
7.5857048425196849
 21
-2.5476207480314961
 31
0
  0
LINE
  5
A4
330
1A
100
AcDbEntity
  8
Edge.Cuts
  6
CONTINUOUS
100
AcDbLine
 10
7.5857048425196849
 20
-2.5476207480314961
 30
0
 11
7.5856299212598426
 21
-2.5472440944881889
 31
0
  0
LINE
  5
A5
330
1A
100
AcDbEntity
  8
Edge.Cuts
  6
CONTINUOUS
100
AcDbLine
 10
7.5856299212598426
 20
-2.5472440944881889
 30
0
 11
7.5856299212598426
 21
-2.4301181102362204
 31
0
  0
LINE
  5
A6
330
1A
100
AcDbEntity
  8
Edge.Cuts
  6
CONTINUOUS
100
AcDbLine
 10
7.5856299212598426
 20
-2.4301181102362204
 30
0
 11
7.4488188976377954
 21
-2.4301181102362204
 31
0
  0
LINE
  5
A7
330
1A
100
AcDbEntity
  8
Edge.Cuts
  6
CONTINUOUS
100
AcDbLine
 10
7.4488188976377954
 20
-2.4301181102362204
 30
0
 11
7.4484422440944877
 21
-2.4300431889763781
 31
0
  0
LINE
  5
A8
330
1A
100
AcDbEntity
  8
Edge.Cuts
  6
CONTINUOUS
100
AcDbLine
 10
7.4484422440944877
 20
-2.4300431889763781
 30
0
 11
7.447909566929134
 21
-2.4295105118110234
 31
0
  0
LINE
  5
A9
330
1A
100
AcDbEntity
  8
Edge.Cuts
  6
CONTINUOUS
100
AcDbLine
 10
7.447909566929134
 20
-2.4295105118110234
 30
0
 11
7.4478346456692908
 21
-2.4291338582677167
 31
0
  0
LINE
  5
AA
330
1A
100
AcDbEntity
  8
Edge.Cuts
  6
CONTINUOUS
100
AcDbLine
 10
7.4478346456692908
 20
-2.4291338582677167
 30
0
 11
7.4478346456692908
 21
-2.3316929133858268
 31
0
  0
LINE
  5
AB
330
1A
100
AcDbEntity
  8
Edge.Cuts
  6
CONTINUOUS
100
AcDbLine
 10
7.4478346456692908
 20
-2.3316929133858268
 30
0
 11
7.3307086614173222
 21
-2.3316929133858268
 31
0
  0
LINE
  5
AC
330
1A
100
AcDbEntity
  8
Edge.Cuts
  6
CONTINUOUS
100
AcDbLine
 10
7.3307086614173222
 20
-2.3316929133858268
 30
0
 11
7.3303320078740155
 21
-2.3316179921259841
 31
0
  0
LINE
  5
AD
330
1A
100
AcDbEntity
  8
Edge.Cuts
  6
CONTINUOUS
100
AcDbLine
 10
7.3303320078740155
 20
-2.3316179921259841
 30
0
 11
7.3297993307086609
 21
-2.3310853149606299
 31
0
  0
LINE
  5
AE
330
1A
100
AcDbEntity
  8
Edge.Cuts
  6
CONTINUOUS
100
AcDbLine
 10
7.3297993307086609
 20
-2.3310853149606299
 30
0
 11
7.3297244094488185
 21
-2.3307086614173227
 31
0
  0
LINE
  5
AF
330
1A
100
AcDbEntity
  8
Edge.Cuts
  6
CONTINUOUS
100
AcDbLine
 10
7.3297244094488185
 20
-2.3307086614173227
 30
0
 11
7.3297244094488185
 21
-2.2332677165354329
 31
0
  0
LINE
  5
B0
330
1A
100
AcDbEntity
  8
Edge.Cuts
  6
CONTINUOUS
100
AcDbLine
 10
7.3297244094488185
 20
-2.2332677165354329
 30
0
 11
7.1732283464566926
 21
-2.2332677165354329
 31
0
  0
LINE
  5
B1
330
1A
100
AcDbEntity
  8
Edge.Cuts
  6
CONTINUOUS
100
AcDbLine
 10
7.1732283464566926
 20
-2.2332677165354329
 30
0
 11
7.1728516929133859
 21
-2.2331927952755906
 31
0
  0
LINE
  5
B2
330
1A
100
AcDbEntity
  8
Edge.Cuts
  6
CONTINUOUS
100
AcDbLine
 10
7.1728516929133859
 20
-2.2331927952755906
 30
0
 11
7.1723190157480312
 21
-2.2326601181102363
 31
0
  0
LINE
  5
B3
330
1A
100
AcDbEntity
  8
Edge.Cuts
  6
CONTINUOUS
100
AcDbLine
 10
7.1723190157480312
 20
-2.2326601181102363
 30
0
 11
7.1722440944881889
 21
-2.2322834645669292
 31
0
  0
LINE
  5
B4
330
1A
100
AcDbEntity
  8
Edge.Cuts
  6
CONTINUOUS
100
AcDbLine
 10
7.1722440944881889
 20
-2.2322834645669292
 30
0
 11
7.1722440944881889
 21
-2.0944881889763778
 31
0
  0
LINE
  5
B5
330
1A
100
AcDbEntity
  8
Edge.Cuts
  6
CONTINUOUS
100
AcDbLine
 10
7.1722440944881889
 20
-2.0944881889763778
 30
0
 11
7.1723190157480312
 21
-2.0941115354330706
 31
0
  0
LINE
  5
B6
330
1A
100
AcDbEntity
  8
Edge.Cuts
  6
CONTINUOUS
100
AcDbLine
 10
7.1723190157480312
 20
-2.0941115354330706
 30
0
 11
7.1728516929133859
 21
-2.0935788582677164
 31
0
  0
LINE
  5
B7
330
1A
100
AcDbEntity
  8
Edge.Cuts
  6
CONTINUOUS
100
AcDbLine
 10
7.1728516929133859
 20
-2.0935788582677164
 30
0
 11
7.1732283464566926
 21
-2.0935039370078741
 31
0
  0
LINE
  5
B8
330
1A
100
AcDbEntity
  8
Edge.Cuts
  6
CONTINUOUS
100
AcDbLine
 10
7.1732283464566926
 20
-2.0935039370078741
 30
0
 11
7.8415354330708658
 21
-2.0935039370078741
 31
0
  0
LINE
  5
B9
330
1A
100
AcDbEntity
  8
Edge.Cuts
  6
CONTINUOUS
100
AcDbLine
 10
7.8415354330708658
 20
-2.0935039370078741
 30
0
 11
7.8415354330708658
 21
-1.9960629921259843
 31
0
  0
LINE
  5
BA
330
1A
100
AcDbEntity
  8
Edge.Cuts
  6
CONTINUOUS
100
AcDbLine
 10
7.8415354330708658
 20
-1.9960629921259843
 30
0
 11
7.8416103543307081
 21
-1.9956863385826771
 31
0
  0
LINE
  5
BB
330
1A
100
AcDbEntity
  8
Edge.Cuts
  6
CONTINUOUS
100
AcDbLine
 10
7.8416103543307081
 20
-1.9956863385826771
 30
0
 11
7.8421430314960627
 21
-1.9951536614173229
 31
0
  0
LINE
  5
BC
330
1A
100
AcDbEntity
  8
Edge.Cuts
  6
CONTINUOUS
100
AcDbLine
 10
7.8421430314960627
 20
-1.9951536614173229
 30
0
 11
7.8425196850393695
 21
-1.9950787401574803
 31
0
  0
LINE
  5
BD
330
1A
100
AcDbEntity
  8
Edge.Cuts
  6
CONTINUOUS
100
AcDbLine
 10
7.8425196850393695
 20
-1.9950787401574803
 30
0
 11
7.9793307086614176
 21
-1.9950787401574803
 31
0
  0
LINE
  5
BE
330
1A
100
AcDbEntity
  8
Edge.Cuts
  6
CONTINUOUS
100
AcDbLine
 10
7.9793307086614176
 20
-1.9950787401574803
 30
0
 11
7.9793307086614176
 21
-1.8582677165354331
 31
0
  0
LINE
  5
BF
330
1A
100
AcDbEntity
  8
Edge.Cuts
  6
CONTINUOUS
100
AcDbLine
 10
7.9793307086614176
 20
-1.8582677165354331
 30
0
 11
7.9794056299212599
 21
-1.8578910629921259
 31
0
  0
LINE
  5
C0
330
1A
100
AcDbEntity
  8
Edge.Cuts
  6
CONTINUOUS
100
AcDbLine
 10
7.9794056299212599
 20
-1.8578910629921259
 30
0
 11
7.9799383070866137
 21
-1.8573583858267717
 31
0
  0
LINE
  5
C1
330
1A
100
AcDbEntity
  8
Edge.Cuts
  6
CONTINUOUS
100
AcDbLine
 10
7.9799383070866137
 20
-1.8573583858267717
 30
0
 11
7.9803149606299213
 21
-1.8572834645669292
 31
0
  0
LINE
  5
C2
330
1A
100
AcDbEntity
  8
Edge.Cuts
  6
CONTINUOUS
100
AcDbLine
 10
7.9803149606299213
 20
-1.8572834645669292
 30
0
 11
8.1171259842519685
 21
-1.8572834645669292
 31
0
  0
LINE
  5
C3
330
1A
100
AcDbEntity
  8
Edge.Cuts
  6
CONTINUOUS
100
AcDbLine
 10
8.1171259842519685
 20
-1.8572834645669292
 30
0
 11
8.1171259842519685
 21
-1.6023622047244095
 31
0
  0
LINE
  5
C4
330
1A
100
AcDbEntity
  8
Edge.Cuts
  6
CONTINUOUS
100
AcDbLine
 10
8.1171259842519685
 20
-1.6023622047244095
 30
0
 11
8.1172009055118117
 21
-1.6019855511811023
 31
0
  0
LINE
  5
C5
330
1A
100
AcDbEntity
  8
Edge.Cuts
  6
CONTINUOUS
100
AcDbLine
 10
8.1172009055118117
 20
-1.6019855511811023
 30
0
 11
8.1177335826771646
 21
-1.6014528740157481
 31
0
  0
LINE
  5
C6
330
1A
100
AcDbEntity
  8
Edge.Cuts
  6
CONTINUOUS
100
AcDbLine
 10
8.1177335826771646
 20
-1.6014528740157481
 30
0
 11
8.1181102362204722
 21
-1.6013779527559056
 31
0
  0
LINE
  5
C7
330
1A
100
AcDbEntity
  8
Edge.Cuts
  6
CONTINUOUS
100
AcDbLine
 10
8.1181102362204722
 20
-1.6013779527559056
 30
0
 11
8.2942913385826778
 21
-1.6013779527559056
 31
0
  0
LINE
  5
C8
330
1A
100
AcDbEntity
  8
Edge.Cuts
  6
CONTINUOUS
100
AcDbLine
 10
8.2942913385826778
 20
-1.6013779527559056
 30
0
 11
8.2942913385826778
 21
-1.3661417322834646
 31
0
  0
LINE
  5
C9
330
1A
100
AcDbEntity
  8
Edge.Cuts
  6
CONTINUOUS
100
AcDbLine
 10
8.2942913385826778
 20
-1.3661417322834646
 30
0
 11
8.2943662598425192
 21
-1.3657650787401574
 31
0
  0
LINE
  5
CA
330
1A
100
AcDbEntity
  8
Edge.Cuts
  6
CONTINUOUS
100
AcDbLine
 10
8.2943662598425192
 20
-1.3657650787401574
 30
0
 11
8.2948989370078738
 21
-1.3652324015748032
 31
0
  0
LINE
  5
CB
330
1A
100
AcDbEntity
  8
Edge.Cuts
  6
CONTINUOUS
100
AcDbLine
 10
8.2948989370078738
 20
-1.3652324015748032
 30
0
 11
8.2952755905511815
 21
-1.3651574803149606
 31
0
  0
LINE
  5
CC
330
1A
100
AcDbEntity
  8
Edge.Cuts
  6
CONTINUOUS
100
AcDbLine
 10
8.2952755905511815
 20
-1.3651574803149606
 30
0
 11
8.4527559055118111
 21
-1.3651574803149606
 31
0
  0
LINE
  5
CD
330
1A
100
AcDbEntity
  8
Edge.Cuts
  6
CONTINUOUS
100
AcDbLine
 10
8.4527559055118111
 20
-1.3651574803149606
 30
0
 11
8.4531325590551187
 21
-1.3652324015748032
 31
0
  0
LINE
  5
CE
330
1A
100
AcDbEntity
  8
Edge.Cuts
  6
CONTINUOUS
100
AcDbLine
 10
8.2962598425196852
 20
-1.3671259842519685
 30
0
 11
8.2962598425196852
 21
-1.6023622047244095
 31
0
  0
LINE
  5
CF
330
1A
100
AcDbEntity
  8
Edge.Cuts
  6
CONTINUOUS
100
AcDbLine
 10
8.2962598425196852
 20
-1.6023622047244095
 30
0
 11
8.296184921259842
 21
-1.6027388582677164
 31
0
  0
LINE
  5
D0
330
1A
100
AcDbEntity
  8
Edge.Cuts
  6
CONTINUOUS
100
AcDbLine
 10
8.296184921259842
 20
-1.6027388582677164
 30
0
 11
8.2956522440944873
 21
-1.6032715354330709
 31
0
  0
LINE
  5
D1
330
1A
100
AcDbEntity
  8
Edge.Cuts
  6
CONTINUOUS
100
AcDbLine
 10
8.2956522440944873
 20
-1.6032715354330709
 30
0
 11
8.2952755905511815
 21
-1.6033464566929134
 31
0
  0
LINE
  5
D2
330
1A
100
AcDbEntity
  8
Edge.Cuts
  6
CONTINUOUS
100
AcDbLine
 10
8.2952755905511815
 20
-1.6033464566929134
 30
0
 11
8.1190944881889759
 21
-1.6033464566929134
 31
0
  0
LINE
  5
D3
330
1A
100
AcDbEntity
  8
Edge.Cuts
  6
CONTINUOUS
100
AcDbLine
 10
8.1190944881889759
 20
-1.6033464566929134
 30
0
 11
8.1190944881889759
 21
-1.8582677165354331
 31
0
  0
LINE
  5
D4
330
1A
100
AcDbEntity
  8
Edge.Cuts
  6
CONTINUOUS
100
AcDbLine
 10
8.1190944881889759
 20
-1.8582677165354331
 30
0
 11
8.1190195669291345
 21
-1.8586443700787401
 31
0
  0
LINE
  5
D5
330
1A
100
AcDbEntity
  8
Edge.Cuts
  6
CONTINUOUS
100
AcDbLine
 10
8.1190195669291345
 20
-1.8586443700787401
 30
0
 11
8.1184868897637799
 21
-1.8591770472440945
 31
0
  0
LINE
  5
D6
330
1A
100
AcDbEntity
  8
Edge.Cuts
  6
CONTINUOUS
100
AcDbLine
 10
8.1184868897637799
 20
-1.8591770472440945
 30
0
 11
8.1181102362204722
 21
-1.859251968503937
 31
0
  0
LINE
  5
D7
330
1A
100
AcDbEntity
  8
Edge.Cuts
  6
CONTINUOUS
100
AcDbLine
 10
8.1181102362204722
 20
-1.859251968503937
 30
0
 11
7.981299212598425
 21
-1.859251968503937
 31
0
  0
LINE
  5
D8
330
1A
100
AcDbEntity
  8
Edge.Cuts
  6
CONTINUOUS
100
AcDbLine
 10
7.981299212598425
 20
-1.859251968503937
 30
0
 11
7.981299212598425
 21
-1.9960629921259843
 31
0
  0
LINE
  5
D9
330
1A
100
AcDbEntity
  8
Edge.Cuts
  6
CONTINUOUS
100
AcDbLine
 10
7.981299212598425
 20
-1.9960629921259843
 30
0
 11
7.9812242913385827
 21
-1.9964396456692912
 31
0
  0
LINE
  5
DA
330
1A
100
AcDbEntity
  8
Edge.Cuts
  6
CONTINUOUS
100
AcDbLine
 10
7.9812242913385827
 20
-1.9964396456692912
 30
0
 11
7.980691614173228
 21
-1.9969723228346457
 31
0
  0
LINE
  5
DB
330
1A
100
AcDbEntity
  8
Edge.Cuts
  6
CONTINUOUS
100
AcDbLine
 10
7.980691614173228
 20
-1.9969723228346457
 30
0
 11
7.9803149606299213
 21
-1.9970472440944882
 31
0
  0
LINE
  5
DC
330
1A
100
AcDbEntity
  8
Edge.Cuts
  6
CONTINUOUS
100
AcDbLine
 10
7.9803149606299213
 20
-1.9970472440944882
 30
0
 11
7.8435039370078741
 21
-1.9970472440944882
 31
0
  0
LINE
  5
DD
330
1A
100
AcDbEntity
  8
Edge.Cuts
  6
CONTINUOUS
100
AcDbLine
 10
7.8435039370078741
 20
-1.9970472440944882
 30
0
 11
7.8435039370078741
 21
-2.0944881889763778
 31
0
  0
LINE
  5
DE
330
1A
100
AcDbEntity
  8
Edge.Cuts
  6
CONTINUOUS
100
AcDbLine
 10
7.8435039370078741
 20
-2.0944881889763778
 30
0
 11
7.8434290157480318
 21
-2.094864842519685
 31
0
  0
LINE
  5
DF
330
1A
100
AcDbEntity
  8
Edge.Cuts
  6
CONTINUOUS
100
AcDbLine
 10
7.8434290157480318
 20
-2.094864842519685
 30
0
 11
7.8428963385826771
 21
-2.0953975196850392
 31
0
  0
LINE
  5
E0
330
1A
100
AcDbEntity
  8
Edge.Cuts
  6
CONTINUOUS
100
AcDbLine
 10
7.8428963385826771
 20
-2.0953975196850392
 30
0
 11
7.8425196850393695
 21
-2.0954724409448819
 31
0
  0
LINE
  5
E1
330
1A
100
AcDbEntity
  8
Edge.Cuts
  6
CONTINUOUS
100
AcDbLine
 10
7.8425196850393695
 20
-2.0954724409448819
 30
0
 11
7.1742125984251963
 21
-2.0954724409448819
 31
0
  0
LINE
  5
E2
330
1A
100
AcDbEntity
  8
Edge.Cuts
  6
CONTINUOUS
100
AcDbLine
 10
7.1742125984251963
 20
-2.0954724409448819
 30
0
 11
7.1742125984251963
 21
-2.231299212598425
 31
0
  0
LINE
  5
E3
330
1A
100
AcDbEntity
  8
Edge.Cuts
  6
CONTINUOUS
100
AcDbLine
 10
7.1742125984251963
 20
-2.231299212598425
 30
0
 11
7.3307086614173222
 21
-2.231299212598425
 31
0
  0
LINE
  5
E4
330
1A
100
AcDbEntity
  8
Edge.Cuts
  6
CONTINUOUS
100
AcDbLine
 10
7.3307086614173222
 20
-2.231299212598425
 30
0
 11
7.3310853149606299
 21
-2.2313741338582678
 31
0
  0
LINE
  5
E5
330
1A
100
AcDbEntity
  8
Edge.Cuts
  6
CONTINUOUS
100
AcDbLine
 10
7.3310853149606299
 20
-2.2313741338582678
 30
0
 11
7.3316179921259845
 21
-2.231906811023622
 31
0
  0
LINE
  5
E6
330
1A
100
AcDbEntity
  8
Edge.Cuts
  6
CONTINUOUS
100
AcDbLine
 10
7.3316179921259845
 20
-2.231906811023622
 30
0
 11
7.3316929133858268
 21
-2.2322834645669292
 31
0
  0
LINE
  5
E7
330
1A
100
AcDbEntity
  8
Edge.Cuts
  6
CONTINUOUS
100
AcDbLine
 10
7.3316929133858268
 20
-2.2322834645669292
 30
0
 11
7.3316929133858268
 21
-2.329724409448819
 31
0
  0
LINE
  5
E8
330
1A
100
AcDbEntity
  8
Edge.Cuts
  6
CONTINUOUS
100
AcDbLine
 10
7.3316929133858268
 20
-2.329724409448819
 30
0
 11
7.4488188976377954
 21
-2.329724409448819
 31
0
  0
LINE
  5
E9
330
1A
100
AcDbEntity
  8
Edge.Cuts
  6
CONTINUOUS
100
AcDbLine
 10
7.4488188976377954
 20
-2.329724409448819
 30
0
 11
7.4491955511811021
 21
-2.3297993307086613
 31
0
  0
LINE
  5
EA
330
1A
100
AcDbEntity
  8
Edge.Cuts
  6
CONTINUOUS
100
AcDbLine
 10
7.4491955511811021
 20
-2.3297993307086613
 30
0
 11
7.4497282283464568
 21
-2.3303320078740155
 31
0
  0
LINE
  5
EB
330
1A
100
AcDbEntity
  8
Edge.Cuts
  6
CONTINUOUS
100
AcDbLine
 10
7.4497282283464568
 20
-2.3303320078740155
 30
0
 11
7.4498031496062991
 21
-2.3307086614173227
 31
0
  0
LINE
  5
EC
330
1A
100
AcDbEntity
  8
Edge.Cuts
  6
CONTINUOUS
100
AcDbLine
 10
7.4498031496062991
 20
-2.3307086614173227
 30
0
 11
7.4498031496062991
 21
-2.4281496062992125
 31
0
  0
LINE
  5
ED
330
1A
100
AcDbEntity
  8
Edge.Cuts
  6
CONTINUOUS
100
AcDbLine
 10
7.4498031496062991
 20
-2.4281496062992125
 30
0
 11
7.5866141732283463
 21
-2.4281496062992125
 31
0
  0
LINE
  5
EE
330
1A
100
AcDbEntity
  8
Edge.Cuts
  6
CONTINUOUS
100
AcDbLine
 10
7.5866141732283463
 20
-2.4281496062992125
 30
0
 11
7.586990826771653
 21
-2.4282245275590553
 31
0
  0
LINE
  5
EF
330
1A
100
AcDbEntity
  8
Edge.Cuts
  6
CONTINUOUS
100
AcDbLine
 10
7.586990826771653
 20
-2.4282245275590553
 30
0
 11
7.5875235039370077
 21
-2.4287572047244095
 31
0
  0
LINE
  5
F0
330
1A
100
AcDbEntity
  8
Edge.Cuts
  6
CONTINUOUS
100
AcDbLine
 10
7.5875235039370077
 20
-2.4287572047244095
 30
0
 11
7.58759842519685
 21
-2.4291338582677167
 31
0
  0
LINE
  5
F1
330
1A
100
AcDbEntity
  8
Edge.Cuts
  6
CONTINUOUS
100
AcDbLine
 10
7.58759842519685
 20
-2.4291338582677167
 30
0
 11
7.58759842519685
 21
-2.5462598425196852
 31
0
  0
LINE
  5
F2
330
1A
100
AcDbEntity
  8
Edge.Cuts
  6
CONTINUOUS
100
AcDbLine
 10
7.58759842519685
 20
-2.5462598425196852
 30
0
 11
7.7047244094488185
 21
-2.5462598425196852
 31
0
  0
LINE
  5
F3
330
1A
100
AcDbEntity
  8
Edge.Cuts
  6
CONTINUOUS
100
AcDbLine
 10
7.7047244094488185
 20
-2.5462598425196852
 30
0
 11
7.7051010629921262
 21
-2.5463347637795275
 31
0
  0
LINE
  5
F4
330
1A
100
AcDbEntity
  8
Edge.Cuts
  6
CONTINUOUS
100
AcDbLine
 10
7.7051010629921262
 20
-2.5463347637795275
 30
0
 11
7.7056337401574799
 21
-2.5468674409448817
 31
0
  0
LINE
  5
F5
330
1A
100
AcDbEntity
  8
Edge.Cuts
  6
CONTINUOUS
100
AcDbLine
 10
7.7056337401574799
 20
-2.5468674409448817
 30
0
 11
7.7057086614173222
 21
-2.5472440944881889
 31
0
  0
LINE
  5
F6
330
1A
100
AcDbEntity
  8
Edge.Cuts
  6
CONTINUOUS
100
AcDbLine
 10
7.7057086614173222
 20
-2.5472440944881889
 30
0
 11
7.7057086614173222
 21
-2.6446850393700787
 31
0
  0
LINE
  5
F7
330
1A
100
AcDbEntity
  8
Edge.Cuts
  6
CONTINUOUS
100
AcDbLine
 10
7.7057086614173222
 20
-2.6446850393700787
 30
0
 11
7.8425196850393695
 21
-2.6446850393700787
 31
0
  0
LINE
  5
F8
330
1A
100
AcDbEntity
  8
Edge.Cuts
  6
CONTINUOUS
100
AcDbLine
 10
7.8425196850393695
 20
-2.6446850393700787
 30
0
 11
7.8428963385826771
 21
-2.644759960629921
 31
0
  0
LINE
  5
F9
330
1A
100
AcDbEntity
  8
Edge.Cuts
  6
CONTINUOUS
100
AcDbLine
 10
7.8428963385826771
 20
-2.644759960629921
 30
0
 11
7.8434290157480318
 21
-2.6452926377952757
 31
0
  0
LINE
  5
FA
330
1A
100
AcDbEntity
  8
Edge.Cuts
  6
CONTINUOUS
100
AcDbLine
 10
7.8434290157480318
 20
-2.6452926377952757
 30
0
 11
7.8435039370078741
 21
-2.6456692913385824
 31
0
  0
LINE
  5
FB
330
1A
100
AcDbEntity
  8
Edge.Cuts
  6
CONTINUOUS
100
AcDbLine
 10
7.8435039370078741
 20
-2.6456692913385824
 30
0
 11
7.8435039370078741
 21
-2.7834645669291338
 31
0
  0
LINE
  5
FC
330
1A
100
AcDbEntity
  8
Edge.Cuts
  6
CONTINUOUS
100
AcDbLine
 10
7.8435039370078741
 20
-2.7834645669291338
 30
0
 11
7.8434290157480318
 21
-2.783841220472441
 31
0
  0
LINE
  5
FD
330
1A
100
AcDbEntity
  8
Edge.Cuts
  6
CONTINUOUS
100
AcDbLine
 10
7.8434290157480318
 20
-2.783841220472441
 30
0
 11
7.8428963385826771
 21
-2.7843738976377952
 31
0
  0
LINE
  5
FE
330
1A
100
AcDbEntity
  8
Edge.Cuts
  6
CONTINUOUS
100
AcDbLine
 10
7.8428963385826771
 20
-2.7843738976377952
 30
0
 11
7.8425196850393695
 21
-2.7844488188976375
 31
0
  0
LINE
  5
FF
330
1A
100
AcDbEntity
  8
Edge.Cuts
  6
CONTINUOUS
100
AcDbLine
 10
7.8425196850393695
 20
-2.7844488188976375
 30
0
 11
7.6860236220472435
 21
-2.7844488188976375
 31
0
  0
LINE
  5
100
330
1A
100
AcDbEntity
  8
Edge.Cuts
  6
CONTINUOUS
100
AcDbLine
 10
7.6860236220472435
 20
-2.7844488188976375
 30
0
 11
7.6860236220472435
 21
-2.9409448818897639
 31
0
  0
LINE
  5
101
330
1A
100
AcDbEntity
  8
Edge.Cuts
  6
CONTINUOUS
100
AcDbLine
 10
7.6860236220472435
 20
-2.9409448818897639
 30
0
 11
7.6859487007874012
 21
-2.9413215354330706
 31
0
  0
LINE
  5
102
330
1A
100
AcDbEntity
  8
Edge.Cuts
  6
CONTINUOUS
100
AcDbLine
 10
7.6859487007874012
 20
-2.9413215354330706
 30
0
 11
7.6854160236220475
 21
-2.9418542125984253
 31
0
  0
LINE
  5
103
330
1A
100
AcDbEntity
  8
Edge.Cuts
  6
CONTINUOUS
100
AcDbLine
 10
7.6854160236220475
 20
-2.9418542125984253
 30
0
 11
7.6850393700787398
 21
-2.9419291338582676
 31
0
  0
LINE
  5
104
330
1A
100
AcDbEntity
  8
Edge.Cuts
  6
CONTINUOUS
100
AcDbLine
 10
7.6850393700787398
 20
-2.9419291338582676
 30
0
 11
7.5285433070866139
 21
-2.9419291338582676
 31
0
  0
LINE
  5
105
330
1A
100
AcDbEntity
  8
Edge.Cuts
  6
CONTINUOUS
100
AcDbLine
 10
7.5285433070866139
 20
-2.9419291338582676
 30
0
 11
7.5285433070866139
 21
-3.1181102362204722
 31
0
  0
LINE
  5
106
330
1A
100
AcDbEntity
  8
Edge.Cuts
  6
CONTINUOUS
100
AcDbLine
 10
7.5285433070866139
 20
-3.1181102362204722
 30
0
 11
7.5284683858267716
 21
-3.1184868897637794
 31
0
  0
LINE
  5
107
330
1A
100
AcDbEntity
  8
Edge.Cuts
  6
CONTINUOUS
100
AcDbLine
 10
7.5284683858267716
 20
-3.1184868897637794
 30
0
 11
7.5279357086614169
 21
-3.1190195669291336
 31
0
  0
LINE
  5
108
330
1A
100
AcDbEntity
  8
Edge.Cuts
  6
CONTINUOUS
100
AcDbLine
 10
7.5279357086614169
 20
-3.1190195669291336
 30
0
 11
7.5275590551181102
 21
-3.1190944881889764
 31
0
  0
LINE
  5
109
330
1A
100
AcDbEntity
  8
Edge.Cuts
  6
CONTINUOUS
100
AcDbLine
 10
7.5275590551181102
 20
-3.1190944881889764
 30
0
 11
7.4498031496062991
 21
-3.1190944881889764
 31
0
  0
LINE
  5
10A
330
1A
100
AcDbEntity
  8
Edge.Cuts
  6
CONTINUOUS
100
AcDbLine
 10
7.4498031496062991
 20
-3.1190944881889764
 30
0
 11
7.4498031496062991
 21
-3.2942913385826773
 31
0
  0
LINE
  5
10B
330
1A
100
AcDbEntity
  8
Edge.Cuts
  6
CONTINUOUS
100
AcDbLine
 10
7.4498031496062991
 20
-3.2942913385826773
 30
0
 11
8.0580708661417315
 21
-3.2942913385826773
 31
0
  0
LINE
  5
10C
330
1A
100
AcDbEntity
  8
Edge.Cuts
  6
CONTINUOUS
100
AcDbLine
 10
8.0580708661417315
 20
-3.2942913385826773
 30
0
 11
8.0580708661417315
 21
-3.1574803149606296
 31
0
  0
LINE
  5
10D
330
1A
100
AcDbEntity
  8
Edge.Cuts
  6
CONTINUOUS
100
AcDbLine
 10
8.0580708661417315
 20
-3.1574803149606296
 30
0
 11
8.0581457874015747
 21
-3.1571036614173229
 31
0
  0
LINE
  5
10E
330
1A
100
AcDbEntity
  8
Edge.Cuts
  6
CONTINUOUS
100
AcDbLine
 10
8.0581457874015747
 20
-3.1571036614173229
 30
0
 11
8.0586784645669294
 21
-3.1565709842519682
 31
0
  0
LINE
  5
10F
330
1A
100
AcDbEntity
  8
Edge.Cuts
  6
CONTINUOUS
100
AcDbLine
 10
8.0586784645669294
 20
-3.1565709842519682
 30
0
 11
8.0590551181102352
 21
-3.1564960629921259
 31
0
  0
LINE
  5
110
330
1A
100
AcDbEntity
  8
Edge.Cuts
  6
CONTINUOUS
100
AcDbLine
 10
8.0590551181102352
 20
-3.1564960629921259
 30
0
 11
8.2155511811023612
 21
-3.1564960629921259
 31
0
  0
LINE
  5
111
330
1A
100
AcDbEntity
  8
Edge.Cuts
  6
CONTINUOUS
100
AcDbLine
 10
8.2155511811023612
 20
-3.1564960629921259
 30
0
 11
8.2155511811023612
 21
-2.9606299212598426
 31
0
  0
LINE
  5
112
330
1A
100
AcDbEntity
  8
Edge.Cuts
  6
CONTINUOUS
100
AcDbLine
 10
8.2155511811023612
 20
-2.9606299212598426
 30
0
 11
8.2156261023622044
 21
-2.9602532677165354
 31
0
  0
LINE
  5
113
330
1A
100
AcDbEntity
  8
Edge.Cuts
  6
CONTINUOUS
100
AcDbLine
 10
8.2156261023622044
 20
-2.9602532677165354
 30
0
 11
8.216158779527559
 21
-2.9597205905511812
 31
0
  0
LINE
  5
114
330
1A
100
AcDbEntity
  8
Edge.Cuts
  6
CONTINUOUS
100
AcDbLine
 10
8.216158779527559
 20
-2.9597205905511812
 30
0
 11
8.2165354330708666
 21
-2.9596456692913384
 31
0
  0
LINE
  5
115
330
1A
100
AcDbEntity
  8
Edge.Cuts
  6
CONTINUOUS
100
AcDbLine
 10
8.2165354330708666
 20
-2.9596456692913384
 30
0
 11
8.2942913385826778
 21
-2.9596456692913384
 31
0
  0
LINE
  5
116
330
1A
100
AcDbEntity
  8
Edge.Cuts
  6
CONTINUOUS
100
AcDbLine
 10
8.2942913385826778
 20
-2.9596456692913384
 30
0
 11
8.2942913385826778
 21
-2.7834645669291338
 31
0
  0
LINE
  5
117
330
1A
100
AcDbEntity
  8
Edge.Cuts
  6
CONTINUOUS
100
AcDbLine
 10
8.2942913385826778
 20
-2.7834645669291338
 30
0
 11
8.2943662598425192
 21
-2.7830879133858266
 31
0
  0
LINE
  5
118
330
1A
100
AcDbEntity
  8
Edge.Cuts
  6
CONTINUOUS
100
AcDbLine
 10
8.2943662598425192
 20
-2.7830879133858266
 30
0
 11
8.2948989370078738
 21
-2.7825552362204724
 31
0
  0
LINE
  5
119
330
1A
100
AcDbEntity
  8
Edge.Cuts
  6
CONTINUOUS
100
AcDbLine
 10
8.2948989370078738
 20
-2.7825552362204724
 30
0
 11
8.2952755905511815
 21
-2.7824803149606296
 31
0
  0
LINE
  5
11A
330
1A
100
AcDbEntity
  8
Edge.Cuts
  6
CONTINUOUS
100
AcDbLine
 10
8.2952755905511815
 20
-2.7824803149606296
 30
0
 11
8.4527559055118111
 21
-2.7824803149606296
 31
0
  0
LINE
  5
11B
330
1A
100
AcDbEntity
  8
Edge.Cuts
  6
CONTINUOUS
100
AcDbLine
 10
8.4527559055118111
 20
-2.7824803149606296
 30
0
 11
8.4531325590551187
 21
-2.7825552362204724
 31
0
  0
LINE
  5
11C
330
1A
100
AcDbEntity
  8
Edge.Cuts
  6
CONTINUOUS
100
AcDbLine
 10
8.4531325590551187
 20
-2.7825552362204724
 30
0
 11
8.4536652362204716
 21
-2.7830879133858266
 31
0
  0
LINE
  5
11D
330
1A
100
AcDbEntity
  8
Edge.Cuts
  6
CONTINUOUS
100
AcDbLine
 10
8.4536652362204716
 20
-2.7830879133858266
 30
0
 11
8.4537401574803148
 21
-2.7834645669291338
 31
0
  0
LINE
  5
11E
330
1A
100
AcDbEntity
  8
Edge.Cuts
  6
CONTINUOUS
100
AcDbLine
 10
8.4537401574803148
 20
-2.7834645669291338
 30
0
 11
8.4537401574803148
 21
-2.9596456692913384
 31
0
  0
LINE
  5
11F
330
1A
100
AcDbEntity
  8
Edge.Cuts
  6
CONTINUOUS
100
AcDbLine
 10
8.4537401574803148
 20
-2.9596456692913384
 30
0
 11
8.5314960629921259
 21
-2.9596456692913384
 31
0
  0
LINE
  5
120
330
1A
100
AcDbEntity
  8
Edge.Cuts
  6
CONTINUOUS
100
AcDbLine
 10
8.5314960629921259
 20
-2.9596456692913384
 30
0
 11
8.5318727165354336
 21
-2.9597205905511812
 31
0
  0
LINE
  5
121
330
1A
100
AcDbEntity
  8
Edge.Cuts
  6
CONTINUOUS
100
AcDbLine
 10
8.5318727165354336
 20
-2.9597205905511812
 30
0
 11
8.5324053937007864
 21
-2.9602532677165354
 31
0
  0
LINE
  5
122
330
1A
100
AcDbEntity
  8
Edge.Cuts
  6
CONTINUOUS
100
AcDbLine
 10
8.5324053937007864
 20
-2.9602532677165354
 30
0
 11
8.5324803149606296
 21
-2.9606299212598426
 31
0
  0
LINE
  5
123
330
1A
100
AcDbEntity
  8
Edge.Cuts
  6
CONTINUOUS
100
AcDbLine
 10
8.5324803149606296
 20
-2.9606299212598426
 30
0
 11
8.5324803149606296
 21
-3.1564960629921259
 31
0
  0
LINE
  5
124
330
1A
100
AcDbEntity
  8
Edge.Cuts
  6
CONTINUOUS
100
AcDbLine
 10
8.5324803149606296
 20
-3.1564960629921259
 30
0
 11
8.6889763779527556
 21
-3.1564960629921259
 31
0
  0
LINE
  5
125
330
1A
100
AcDbEntity
  8
Edge.Cuts
  6
CONTINUOUS
100
AcDbLine
 10
8.6889763779527556
 20
-3.1564960629921259
 30
0
 11
8.6893530314960632
 21
-3.1565709842519682
 31
0
  0
LINE
  5
126
330
1A
100
AcDbEntity
  8
Edge.Cuts
  6
CONTINUOUS
100
AcDbLine
 10
8.6893530314960632
 20
-3.1565709842519682
 30
0
 11
8.6898857086614179
 21
-3.1571036614173229
 31
0
  0
LINE
  5
127
330
1A
100
AcDbEntity
  8
Edge.Cuts
  6
CONTINUOUS
100
AcDbLine
 10
8.6898857086614179
 20
-3.1571036614173229
 30
0
 11
8.6899606299212593
 21
-3.1574803149606296
 31
0
  0
LINE
  5
128
330
1A
100
AcDbEntity
  8
Edge.Cuts
  6
CONTINUOUS
100
AcDbLine
 10
8.6899606299212593
 20
-3.1574803149606296
 30
0
 11
8.6899606299212593
 21
-3.2942913385826773
 31
0
  0
LINE
  5
129
330
1A
100
AcDbEntity
  8
Edge.Cuts
  6
CONTINUOUS
100
AcDbLine
 10
8.6899606299212593
 20
-3.2942913385826773
 30
0
 11
9.2982283464566926
 21
-3.2942913385826773
 31
0
  0
LINE
  5
12A
330
1A
100
AcDbEntity
  8
Edge.Cuts
  6
CONTINUOUS
100
AcDbLine
 10
9.2982283464566926
 20
-3.2942913385826773
 30
0
 11
9.2982283464566926
 21
-3.1190944881889764
 31
0
  0
LINE
  5
12B
330
1A
100
AcDbEntity
  8
Edge.Cuts
  6
CONTINUOUS
100
AcDbLine
 10
9.2982283464566926
 20
-3.1190944881889764
 30
0
 11
9.1614173228346463
 21
-3.1190944881889764
 31
0
  0
LINE
  5
12C
330
1A
100
AcDbEntity
  8
Edge.Cuts
  6
CONTINUOUS
100
AcDbLine
 10
9.1614173228346463
 20
-3.1190944881889764
 30
0
 11
9.1610406692913386
 21
-3.1190195669291336
 31
0
  0
LINE
  5
12D
330
1A
100
AcDbEntity
  8
Edge.Cuts
  6
CONTINUOUS
100
AcDbLine
 10
9.1610406692913386
 20
-3.1190195669291336
 30
0
 11
9.160507992125984
 21
-3.1184868897637794
 31
0
  0
LINE
  5
12E
330
1A
100
AcDbEntity
  8
Edge.Cuts
  6
CONTINUOUS
100
AcDbLine
 10
9.160507992125984
 20
-3.1184868897637794
 30
0
 11
9.1604330708661408
 21
-3.1181102362204722
 31
0
  0
LINE
  5
12F
330
1A
100
AcDbEntity
  8
Edge.Cuts
  6
CONTINUOUS
100
AcDbLine
 10
9.1604330708661408
 20
-3.1181102362204722
 30
0
 11
9.1604330708661408
 21
-2.9419291338582676
 31
0
  0
LINE
  5
130
330
1A
100
AcDbEntity
  8
Edge.Cuts
  6
CONTINUOUS
100
AcDbLine
 10
9.1604330708661408
 20
-2.9419291338582676
 30
0
 11
9.0236220472440944
 21
-2.9419291338582676
 31
0
  0
LINE
  5
131
330
1A
100
AcDbEntity
  8
Edge.Cuts
  6
CONTINUOUS
100
AcDbLine
 10
9.0236220472440944
 20
-2.9419291338582676
 30
0
 11
9.0232453937007868
 21
-2.9418542125984253
 31
0
  0
LINE
  5
132
330
1A
100
AcDbEntity
  8
Edge.Cuts
  6
CONTINUOUS
100
AcDbLine
 10
9.0232453937007868
 20
-2.9418542125984253
 30
0
 11
9.0227127165354322
 21
-2.9413215354330706
 31
0
  0
LINE
  5
133
330
1A
100
AcDbEntity
  8
Edge.Cuts
  6
CONTINUOUS
100
AcDbLine
 10
9.0227127165354322
 20
-2.9413215354330706
 30
0
 11
9.0226377952755907
 21
-2.9409448818897639
 31
0
  0
LINE
  5
134
330
1A
100
AcDbEntity
  8
Edge.Cuts
  6
CONTINUOUS
100
AcDbLine
 10
9.0226377952755907
 20
-2.9409448818897639
 30
0
 11
9.0226377952755907
 21
-2.7844488188976375
 31
0
  0
LINE
  5
135
330
1A
100
AcDbEntity
  8
Edge.Cuts
  6
CONTINUOUS
100
AcDbLine
 10
9.0226377952755907
 20
-2.7844488188976375
 30
0
 11
8.9055118110236222
 21
-2.7844488188976375
 31
0
  0
LINE
  5
136
330
1A
100
AcDbEntity
  8
Edge.Cuts
  6
CONTINUOUS
100
AcDbLine
 10
8.9055118110236222
 20
-2.7844488188976375
 30
0
 11
8.9051351574803146
 21
-2.7843738976377952
 31
0
  0
LINE
  5
137
330
1A
100
AcDbEntity
  8
Edge.Cuts
  6
CONTINUOUS
100
AcDbLine
 10
8.9051351574803146
 20
-2.7843738976377952
 30
0
 11
8.9046024803149599
 21
-2.783841220472441
 31
0
  0
LINE
  5
138
330
1A
100
AcDbEntity
  8
Edge.Cuts
  6
CONTINUOUS
100
AcDbLine
 10
8.9046024803149599
 20
-2.783841220472441
 30
0
 11
8.9045275590551185
 21
-2.7834645669291338
 31
0
  0
LINE
  5
139
330
1A
100
AcDbEntity
  8
Edge.Cuts
  6
CONTINUOUS
100
AcDbLine
 10
8.9045275590551185
 20
-2.7834645669291338
 30
0
 11
8.9045275590551185
 21
-2.6456692913385824
 31
0
  0
LINE
  5
13A
330
1A
100
AcDbEntity
  8
Edge.Cuts
  6
CONTINUOUS
100
AcDbLine
 10
8.9045275590551185
 20
-2.6456692913385824
 30
0
 11
8.9046024803149599
 21
-2.6452926377952757
 31
0
  0
LINE
  5
13B
330
1A
100
AcDbEntity
  8
Edge.Cuts
  6
CONTINUOUS
100
AcDbLine
 10
8.9046024803149599
 20
-2.6452926377952757
 30
0
 11
8.9051351574803146
 21
-2.644759960629921
 31
0
  0
LINE
  5
13C
330
1A
100
AcDbEntity
  8
Edge.Cuts
  6
CONTINUOUS
100
AcDbLine
 10
8.9051351574803146
 20
-2.644759960629921
 30
0
 11
8.9055118110236222
 21
-2.6446850393700787
 31
0
  0
LINE
  5
13D
330
1A
100
AcDbEntity
  8
Edge.Cuts
  6
CONTINUOUS
100
AcDbLine
 10
8.9055118110236222
 20
-2.6446850393700787
 30
0
 11
9.0423228346456686
 21
-2.6446850393700787
 31
0
  0
LINE
  5
13E
330
1A
100
AcDbEntity
  8
Edge.Cuts
  6
CONTINUOUS
100
AcDbLine
 10
9.0423228346456686
 20
-2.6446850393700787
 30
0
 11
9.0423228346456686
 21
-2.5472440944881889
 31
0
  0
LINE
  5
13F
330
1A
100
AcDbEntity
  8
Edge.Cuts
  6
CONTINUOUS
100
AcDbLine
 10
9.0423228346456686
 20
-2.5472440944881889
 30
0
 11
9.0423977559055118
 21
-2.5468674409448817
 31
0
  0
LINE
  5
140
330
1A
100
AcDbEntity
  8
Edge.Cuts
  6
CONTINUOUS
100
AcDbLine
 10
9.0423977559055118
 20
-2.5468674409448817
 30
0
 11
9.0429304330708664
 21
-2.5463347637795275
 31
0
  0
LINE
  5
141
330
1A
100
AcDbEntity
  8
Edge.Cuts
  6
CONTINUOUS
100
AcDbLine
 10
9.0429304330708664
 20
-2.5463347637795275
 30
0
 11
9.0433070866141723
 21
-2.5462598425196852
 31
0
  0
LINE
  5
142
330
1A
100
AcDbEntity
  8
Edge.Cuts
  6
CONTINUOUS
100
AcDbLine
 10
9.0433070866141723
 20
-2.5462598425196852
 30
0
 11
9.1604330708661408
 21
-2.5462598425196852
 31
0
  0
LINE
  5
143
330
1A
100
AcDbEntity
  8
Edge.Cuts
  6
CONTINUOUS
100
AcDbLine
 10
9.1604330708661408
 20
-2.5462598425196852
 30
0
 11
9.1604330708661408
 21
-2.4291338582677167
 31
0
  0
LINE
  5
144
330
1A
100
AcDbEntity
  8
Edge.Cuts
  6
CONTINUOUS
100
AcDbLine
 10
9.1604330708661408
 20
-2.4291338582677167
 30
0
 11
9.160507992125984
 21
-2.4287572047244095
 31
0
  0
LINE
  5
145
330
1A
100
AcDbEntity
  8
Edge.Cuts
  6
CONTINUOUS
100
AcDbLine
 10
9.160507992125984
 20
-2.4287572047244095
 30
0
 11
9.1610406692913386
 21
-2.4282245275590553
 31
0
  0
LINE
  5
146
330
1A
100
AcDbEntity
  8
Edge.Cuts
  6
CONTINUOUS
100
AcDbLine
 10
9.1610406692913386
 20
-2.4282245275590553
 30
0
 11
9.1614173228346463
 21
-2.4281496062992125
 31
0
  0
LINE
  5
147
330
1A
100
AcDbEntity
  8
Edge.Cuts
  6
CONTINUOUS
100
AcDbLine
 10
9.1614173228346463
 20
-2.4281496062992125
 30
0
 11
9.2982283464566926
 21
-2.4281496062992125
 31
0
  0
LINE
  5
148
330
1A
100
AcDbEntity
  8
Edge.Cuts
  6
CONTINUOUS
100
AcDbLine
 10
9.2982283464566926
 20
-2.4281496062992125
 30
0
 11
9.2982283464566926
 21
-2.3307086614173227
 31
0
  0
LINE
  5
149
330
1A
100
AcDbEntity
  8
Edge.Cuts
  6
CONTINUOUS
100
AcDbLine
 10
9.2982283464566926
 20
-2.3307086614173227
 30
0
 11
9.2983032677165358
 21
-2.3303320078740155
 31
0
  0
LINE
  5
14A
330
1A
100
AcDbEntity
  8
Edge.Cuts
  6
CONTINUOUS
100
AcDbLine
 10
9.2983032677165358
 20
-2.3303320078740155
 30
0
 11
9.2988359448818887
 21
-2.3297993307086613
 31
0
  0
LINE
  5
14B
330
1A
100
AcDbEntity
  8
Edge.Cuts
  6
CONTINUOUS
100
AcDbLine
 10
9.2988359448818887
 20
-2.3297993307086613
 30
0
 11
9.2992125984251963
 21
-2.329724409448819
 31
0
  0
LINE
  5
14C
330
1A
100
AcDbEntity
  8
Edge.Cuts
  6
CONTINUOUS
100
AcDbLine
 10
9.2992125984251963
 20
-2.329724409448819
 30
0
 11
9.4163385826771648
 21
-2.329724409448819
 31
0
  0
LINE
  5
14D
330
1A
100
AcDbEntity
  8
Edge.Cuts
  6
CONTINUOUS
100
AcDbLine
 10
9.4163385826771648
 20
-2.329724409448819
 30
0
 11
9.4163385826771648
 21
-2.2322834645669292
 31
0
  0
LINE
  5
14E
330
1A
100
AcDbEntity
  8
Edge.Cuts
  6
CONTINUOUS
100
AcDbLine
 10
9.4163385826771648
 20
-2.2322834645669292
 30
0
 11
9.416413503937008
 21
-2.231906811023622
 31
0
  0
LINE
  5
14F
330
1A
100
AcDbEntity
  8
Edge.Cuts
  6
CONTINUOUS
100
AcDbLine
 10
9.416413503937008
 20
-2.231906811023622
 30
0
 11
9.4169461811023627
 21
-2.2313741338582678
 31
0
  0
LINE
  5
150
330
1A
100
AcDbEntity
  8
Edge.Cuts
  6
CONTINUOUS
100
AcDbLine
 10
9.4169461811023627
 20
-2.2313741338582678
 30
0
 11
9.4173228346456686
 21
-2.231299212598425
 31
0
  0
LINE
  5
151
330
1A
100
AcDbEntity
  8
Edge.Cuts
  6
CONTINUOUS
100
AcDbLine
 10
9.4173228346456686
 20
-2.231299212598425
 30
0
 11
9.5738188976377945
 21
-2.231299212598425
 31
0
  0
LINE
  5
152
330
1A
100
AcDbEntity
  8
Edge.Cuts
  6
CONTINUOUS
100
AcDbLine
 10
9.5738188976377945
 20
-2.231299212598425
 30
0
 11
9.5738188976377945
 21
-2.0954724409448819
 31
0
  0
LINE
  5
153
330
1A
100
AcDbEntity
  8
Edge.Cuts
  6
CONTINUOUS
100
AcDbLine
 10
9.5738188976377945
 20
-2.0954724409448819
 30
0
 11
8.9055118110236222
 21
-2.0954724409448819
 31
0
  0
LINE
  5
154
330
1A
100
AcDbEntity
  8
Edge.Cuts
  6
CONTINUOUS
100
AcDbLine
 10
8.9055118110236222
 20
-2.0954724409448819
 30
0
 11
8.9051351574803146
 21
-2.0953975196850392
 31
0
  0
LINE
  5
155
330
1A
100
AcDbEntity
  8
Edge.Cuts
  6
CONTINUOUS
100
AcDbLine
 10
8.9051351574803146
 20
-2.0953975196850392
 30
0
 11
8.9046024803149599
 21
-2.094864842519685
 31
0
  0
LINE
  5
156
330
1A
100
AcDbEntity
  8
Edge.Cuts
  6
CONTINUOUS
100
AcDbLine
 10
8.9046024803149599
 20
-2.094864842519685
 30
0
 11
8.9045275590551185
 21
-2.0944881889763778
 31
0
  0
LINE
  5
157
330
1A
100
AcDbEntity
  8
Edge.Cuts
  6
CONTINUOUS
100
AcDbLine
 10
8.9045275590551185
 20
-2.0944881889763778
 30
0
 11
8.9045275590551185
 21
-1.9970472440944882
 31
0
  0
LINE
  5
158
330
1A
100
AcDbEntity
  8
Edge.Cuts
  6
CONTINUOUS
100
AcDbLine
 10
8.9045275590551185
 20
-1.9970472440944882
 30
0
 11
8.7677165354330704
 21
-1.9970472440944882
 31
0
  0
LINE
  5
159
330
1A
100
AcDbEntity
  8
Edge.Cuts
  6
CONTINUOUS
100
AcDbLine
 10
8.7677165354330704
 20
-1.9970472440944882
 30
0
 11
8.7673398818897628
 21
-1.9969723228346457
 31
0
  0
LINE
  5
15A
330
1A
100
AcDbEntity
  8
Edge.Cuts
  6
CONTINUOUS
100
AcDbLine
 10
8.7673398818897628
 20
-1.9969723228346457
 30
0
 11
8.7668072047244099
 21
-1.9964396456692912
 31
0
  0
LINE
  5
15B
330
1A
100
AcDbEntity
  8
Edge.Cuts
  6
CONTINUOUS
100
AcDbLine
 10
8.7668072047244099
 20
-1.9964396456692912
 30
0
 11
8.7667322834645667
 21
-1.9960629921259843
 31
0
  0
LINE
  5
15C
330
1A
100
AcDbEntity
  8
Edge.Cuts
  6
CONTINUOUS
100
AcDbLine
 10
8.7667322834645667
 20
-1.9960629921259843
 30
0
 11
8.7667322834645667
 21
-1.859251968503937
 31
0
  0
LINE
  5
15D
330
1A
100
AcDbEntity
  8
Edge.Cuts
  6
CONTINUOUS
100
AcDbLine
 10
8.7667322834645667
 20
-1.859251968503937
 30
0
 11
8.6299212598425203
 21
-1.859251968503937
 31
0
  0
LINE
  5
15E
330
1A
100
AcDbEntity
  8
Edge.Cuts
  6
CONTINUOUS
100
AcDbLine
 10
8.6299212598425203
 20
-1.859251968503937
 30
0
 11
8.6295446062992127
 21
-1.8591770472440945
 31
0
  0
LINE
  5
15F
330
1A
100
AcDbEntity
  8
Edge.Cuts
  6
CONTINUOUS
100
AcDbLine
 10
8.6295446062992127
 20
-1.8591770472440945
 30
0
 11
8.6290119291338581
 21
-1.8586443700787401
 31
0
  0
LINE
  5
160
330
1A
100
AcDbEntity
  8
Edge.Cuts
  6
CONTINUOUS
100
AcDbLine
 10
8.6290119291338581
 20
-1.8586443700787401
 30
0
 11
8.6289370078740149
 21
-1.8582677165354331
 31
0
  0
LINE
  5
161
330
1A
100
AcDbEntity
  8
Edge.Cuts
  6
CONTINUOUS
100
AcDbLine
 10
8.6289370078740149
 20
-1.8582677165354331
 30
0
 11
8.6289370078740149
 21
-1.6033464566929134
 31
0
  0
LINE
  5
162
330
1A
100
AcDbEntity
  8
Edge.Cuts
  6
CONTINUOUS
100
AcDbLine
 10
8.6289370078740149
 20
-1.6033464566929134
 30
0
 11
8.4527559055118111
 21
-1.6033464566929134
 31
0
  0
LINE
  5
163
330
1A
100
AcDbEntity
  8
Edge.Cuts
  6
CONTINUOUS
100
AcDbLine
 10
8.4527559055118111
 20
-1.6033464566929134
 30
0
 11
8.4523792519685035
 21
-1.6032715354330709
 31
0
  0
LINE
  5
164
330
1A
100
AcDbEntity
  8
Edge.Cuts
  6
CONTINUOUS
100
AcDbLine
 10
8.4523792519685035
 20
-1.6032715354330709
 30
0
 11
8.4518465748031488
 21
-1.6027388582677164
 31
0
  0
LINE
  5
165
330
1A
100
AcDbEntity
  8
Edge.Cuts
  6
CONTINUOUS
100
AcDbLine
 10
8.4518465748031488
 20
-1.6027388582677164
 30
0
 11
8.4517716535433074
 21
-1.6023622047244095
 31
0
  0
LINE
  5
166
330
1A
100
AcDbEntity
  8
Edge.Cuts
  6
CONTINUOUS
100
AcDbLine
 10
8.4517716535433074
 20
-1.6023622047244095
 30
0
 11
8.4517716535433074
 21
-1.3671259842519685
 31
0
  0
LINE
  5
167
330
1A
100
AcDbEntity
  8
Edge.Cuts
  6
CONTINUOUS
100
AcDbLine
 10
8.4517716535433074
 20
-1.3671259842519685
 30
0
 11
8.2962598425196852
 21
-1.3671259842519685
 31
0
  0
ENDSEC
  0
SECTION
  2
OBJECTS
  0
DICTIONARY
  5
20
330
0
100
AcDbDictionary
281
1
  3
ACAD_GROUP
350
168
  3
ACAD_LAYOUT
350
21
  3
ACAD_PLOTSTYLENAME
350
11
  0
DICTIONARY
  5
168
330
20
100
AcDbDictionary
281
1
  0
ACDBDICTIONARYWDFLT
  5
11
330
20
100
AcDbDictionary
281
1
  3
Normal
350
10
100
AcDbDictionaryWithDefault
340
10
  0
ACDBPLACEHOLDER
  5
10
330
11
  0
DICTIONARY
  5
21
330
20
100
AcDbDictionary
281
1
  3
Model
350
1D
  3
Layout1
350
1E
  3
Layout2
350
1F
  0
LAYOUT
  5
1D
330
21
100
AcDbPlotSettings
  1

  2
none_device
  4
A3
  6

 40
0.0
 41
0.0
 42
0.0
 43
0.0
 44
420.0
 45
297.0
 46
0.0
 47
0.0
 48
0.0
 49
0.0
140
0.0
141
0.0
142
1.0
143
1.0
 70
1024
 72
1
 73
0
 74
5
  7

 75
16
 76
0
 77
2
 78
300
147
1.0
148
0.0
149
0.0
100
AcDbLayout
  1
Model
 70
1
 71
0
 10
0.0
 20
0.0
 11
420.0
 21
297.0
 12
0.0
 22
0.0
 32
0.0
 14
1e+20
 24
1e+20
 34
1e+20
 15
-1e+20
 25
-1e+20
 35
-1e+20
146
0.0
 13
0.0
 23
0.0
 33
0.0
 16
1.0
 26
0.0
 36
0.0
 17
0.0
 27
1.0
 37
0.0
 76
0
330
1A
  0
LAYOUT
  5
1E
330
21
100
AcDbPlotSettings
  1

  2
none_device
  4
A3
  6

 40
0.0
 41
0.0
 42
0.0
 43
0.0
 44
420.0
 45
297.0
 46
0.0
 47
0.0
 48
0.0
 49
0.0
140
0.0
141
0.0
142
1.0
143
1.0
 70
0
 72
1
 73
0
 74
5
  7

 75
16
 76
0
 77
2
 78
300
147
1.0
148
0.0
149
0.0
100
AcDbLayout
  1
Layout1
 70
1
 71
1
 10
0.0
 20
0.0
 11
420.0
 21
297.0
 12
0.0
 22
0.0
 32
0.0
 14
1e+20
 24
1e+20
 34
1e+20
 15
-1e+20
 25
-1e+20
 35
-1e+20
146
0.0
 13
0.0
 23
0.0
 33
0.0
 16
1.0
 26
0.0
 36
0.0
 17
0.0
 27
1.0
 37
0.0
 76
0
330
1B
  0
LAYOUT
  5
1F
330
21
100
AcDbPlotSettings
  1

  2
none_device
  4
A3
  6

 40
0.0
 41
0.0
 42
0.0
 43
0.0
 44
420.0
 45
297.0
 46
0.0
 47
0.0
 48
0.0
 49
0.0
140
0.0
141
0.0
142
1.0
143
1.0
 70
0
 72
1
 73
0
 74
5
  7

 75
16
 76
0
 77
2
 78
300
147
1.0
148
0.0
149
0.0
100
AcDbLayout
  1
Layout2
 70
1
 71
2
 10
0.0
 20
0.0
 11
420.0
 21
297.0
 12
0.0
 22
0.0
 32
0.0
 14
1e+20
 24
1e+20
 34
1e+20
 15
-1e+20
 25
-1e+20
 35
-1e+20
146
0.0
 13
0.0
 23
0.0
 33
0.0
 16
1.0
 26
0.0
 36
0.0
 17
0.0
 27
1.0
 37
0.0
 76
0
330
1C
  0
ENDSEC
  0
EOF
